AtkinsonHyperlegibleMono-SemiBold.sfdir
StartChar: exclam
Encoding: 33 33 254
Width: 632
GlyphClass: 1
Flags: W
LayerCount: 2
Fore
SplineSet
249 496 m 1,0,-1
 249 668 l 1,1,-1
 382 668 l 1,2,-1
 382 496 l 1,3,-1
 356 222 l 1,4,-1
 274 222 l 1,5,-1
 249 496 l 1,0,-1
256.5 12.5 m 128,-1,7
 232 37 232 37 232 71 c 0,8,9
 232 106 232 106 256.5 130.5 c 128,-1,10
 281 155 281 155 315 155 c 0,11,12
 350 155 350 155 374.5 130.5 c 128,-1,13
 399 106 399 106 399 71 c 0,14,15
 399 37 399 37 374.5 12.5 c 128,-1,16
 350 -12 350 -12 315 -12 c 0,17,6
 281 -12 281 -12 256.5 12.5 c 128,-1,7
EndSplineSet
EndChar
StartChar: numbersign
Encoding: 35 35 261
Width: 632
GlyphClass: 1
Flags: W
LayerCount: 2
Fore
SplineSet
120 164 m 1,0,-1
 27 164 l 1,1,-1
 40 269 l 1,2,-1
 131 269 l 1,3,-1
 147 399 l 1,4,-1
 55 399 l 1,5,-1
 68 504 l 1,6,-1
 159 504 l 1,7,-1
 179 668 l 1,8,-1
 291 668 l 1,9,-1
 271 504 l 1,10,-1
 401 504 l 1,11,-1
 421 668 l 1,12,-1
 532 668 l 1,13,-1
 512 504 l 1,14,-1
 605 504 l 1,15,-1
 592 399 l 1,16,-1
 502 399 l 1,17,-1
 486 269 l 1,18,-1
 577 269 l 1,19,-1
 564 164 l 1,20,-1
 473 164 l 1,21,-1
 453 0 l 1,22,-1
 341 0 l 1,23,-1
 361 164 l 1,24,-1
 232 164 l 1,25,-1
 212 0 l 1,26,-1
 100 0 l 1,27,-1
 120 164 l 1,0,-1
374 269 m 1,28,-1
 390 399 l 1,29,-1
 259 399 l 1,30,-1
 243 269 l 1,31,-1
 374 269 l 1,28,-1
EndSplineSet
EndChar
StartChar: ampersand
Encoding: 38 38 289
Width: 632
GlyphClass: 1
Flags: W
LayerCount: 2
Fore
SplineSet
124 12 m 128,-1,1
 75 36 75 36 48 79.5 c 128,-1,2
 21 123 21 123 21 180 c 0,3,4
 21 242 21 242 61 295.5 c 128,-1,5
 101 349 101 349 176 384 c 1,6,7
 145 421 145 421 129.5 460.5 c 128,-1,8
 114 500 114 500 114 537 c 0,9,10
 114 583 114 583 137 620 c 128,-1,11
 160 657 160 657 200 678 c 128,-1,12
 240 699 240 699 290 699 c 0,13,14
 335 699 335 699 373.5 678.5 c 128,-1,15
 412 658 412 658 434.5 620.5 c 128,-1,16
 457 583 457 583 457 536 c 0,17,18
 457 426 457 426 332 358 c 1,19,-1
 441 229 l 1,20,21
 468 283 468 283 477 360 c 1,22,-1
 579 360 l 1,23,24
 571 297 571 297 551 240.5 c 128,-1,25
 531 184 531 184 505 146 c 1,26,-1
 623 0 l 1,27,-1
 492 0 l 1,28,-1
 435 68 l 1,29,30
 352 -12 352 -12 239 -12 c 0,31,0
 173 -12 173 -12 124 12 c 128,-1,1
371 145 m 1,33,-1
 235 307 l 1,34,35
 138 263 138 263 138 188 c 0,36,37
 138 144 138 144 168.5 117 c 128,-1,38
 199 90 199 90 247 90 c 0,39,32
 321 90 321 90 371 145 c 1,33,-1
338 475 m 128,-1,41
 359 502 359 502 359 533 c 0,42,43
 359 566 359 566 339 586 c 128,-1,44
 319 606 319 606 288 606 c 256,45,46
 257 606 257 606 237 586.5 c 128,-1,47
 217 567 217 567 217 537 c 0,48,49
 217 513 217 513 231.5 488 c 128,-1,50
 246 463 246 463 279 428 c 1,51,40
 317 448 317 448 338 475 c 128,-1,41
EndSplineSet
EndChar
StartChar: parenright
Encoding: 41 41 269
Width: 632
GlyphClass: 1
Flags: W
LayerCount: 2
Fore
SplineSet
302 49.5 m 128,-1,1
 360 162 360 162 360 273 c 256,2,3
 360 384 360 384 302 496.5 c 128,-1,4
 244 609 244 609 137 708 c 1,5,-1
 281 708 l 1,6,7
 378 612 378 612 430 500.5 c 128,-1,8
 482 389 482 389 482 273 c 256,9,10
 482 157 482 157 430 45.5 c 128,-1,11
 378 -66 378 -66 281 -162 c 1,12,-1
 137 -162 l 1,13,0
 244 -63 244 -63 302 49.5 c 128,-1,1
EndSplineSet
EndChar
StartChar: asterisk
Encoding: 42 42 260
Width: 632
GlyphClass: 1
Flags: W
LayerCount: 2
Fore
SplineSet
181 365 m 1,0,-1
 257 469 l 1,1,-1
 133 509 l 1,2,-1
 157 579 l 1,3,-1
 279 539 l 1,4,-1
 279 669 l 1,5,-1
 353 669 l 1,6,-1
 353 539 l 1,7,-1
 475 579 l 1,8,-1
 499 509 l 1,9,-1
 376 469 l 1,10,-1
 453 364 l 1,11,-1
 393 321 l 1,12,-1
 316 425 l 1,13,-1
 241 322 l 1,14,-1
 181 365 l 1,0,-1
EndSplineSet
EndChar
StartChar: plus
Encoding: 43 43 311
Width: 632
GlyphClass: 1
Flags: W
LayerCount: 2
Fore
SplineSet
263 195 m 1,0,-1
 62 195 l 1,1,-1
 62 301 l 1,2,-1
 263 301 l 1,3,-1
 263 496 l 1,4,-1
 368 496 l 1,5,-1
 368 301 l 1,6,-1
 570 301 l 1,7,-1
 570 195 l 1,8,-1
 368 195 l 1,9,-1
 368 0 l 1,10,-1
 263 0 l 1,11,-1
 263 195 l 1,0,-1
EndSplineSet
EndChar
StartChar: comma
Encoding: 44 44 250
Width: 632
GlyphClass: 1
Flags: W
LayerCount: 2
Fore
SplineSet
245 22 m 128,-1,1
 224 48 224 48 224 80 c 0,2,3
 224 118 224 118 251 145 c 128,-1,4
 278 172 278 172 316 172 c 0,5,6
 355 172 355 172 381.5 145 c 128,-1,7
 408 118 408 118 408 80 c 0,8,9
 408 59 408 59 401 43 c 2,10,-1
 324 -153 l 1,11,-1
 242 -153 l 1,12,-1
 297 -9 l 1,13,0
 266 -4 266 -4 245 22 c 128,-1,1
EndSplineSet
EndChar
StartChar: hyphen
Encoding: 45 45 264
Width: 632
GlyphClass: 1
Flags: W
LayerCount: 2
Fore
SplineSet
161 303 m 1,0,-1
 471 303 l 1,1,-1
 471 194 l 1,2,-1
 161 194 l 1,3,-1
 161 303 l 1,0,-1
EndSplineSet
EndChar
StartChar: zero
Encoding: 48 48 229
Width: 632
GlyphClass: 1
Flags: W
LayerCount: 2
Fore
SplineSet
112 79.5 m 128,-1,1
 40 171 40 171 40 335 c 256,2,3
 40 499 40 499 112 590 c 128,-1,4
 184 681 184 681 316 681 c 256,5,6
 448 681 448 681 520 590 c 128,-1,7
 592 499 592 499 592 335 c 256,8,9
 592 171 592 171 520 79.5 c 128,-1,10
 448 -12 448 -12 316 -12 c 256,11,0
 184 -12 184 -12 112 79.5 c 128,-1,1
415 127 m 1,13,-1
 183 463 l 1,14,15
 164 410 164 410 164 336 c 0,16,17
 164 206 164 206 205 143.5 c 128,-1,18
 246 81 246 81 316 81 c 0,19,12
 379 81 379 81 415 127 c 1,13,-1
468 336 m 0,21,22
 468 445 468 445 430 516.5 c 128,-1,23
 392 588 392 588 316 588 c 0,24,25
 257 588 257 588 219 544 c 1,26,-1
 451 208 l 1,27,20
 468 261 468 261 468 336 c 0,21,22
EndSplineSet
Substitution2: "'zero' Slashed Zero in Latin lookup 10 subtable" zero.zero
AlternateSubs2: "'aalt' Access All Alternates in Latin lookup 0 subtable" zero.zero
EndChar
StartChar: one
Encoding: 49 49 230
Width: 632
GlyphClass: 5
Flags: W
LayerCount: 2
Fore
SplineSet
108 102 m 1,0,-1
 267 102 l 1,1,-1
 267 472 l 1,2,-1
 107 472 l 1,3,-1
 107 571 l 1,4,5
 167 571 167 571 201.5 577.5 c 128,-1,6
 236 584 236 584 258.5 605 c 128,-1,7
 281 626 281 626 297 668 c 1,8,-1
 390 668 l 1,9,-1
 390 102 l 1,10,-1
 528 102 l 1,11,-1
 528 0 l 1,12,-1
 108 0 l 1,13,-1
 108 102 l 1,0,-1
EndSplineSet
Substitution2: "'sups' Superscript in Latin lookup 6 subtable" uni00B9
AlternateSubs2: "'aalt' Access All Alternates in Latin lookup 0 subtable" uni00B9
EndChar
StartChar: two
Encoding: 50 50 231
Width: 632
GlyphClass: 5
Flags: W
LayerCount: 2
Fore
SplineSet
277 258.5 m 128,-1,1
 354 325 354 325 390.5 380.5 c 128,-1,2
 427 436 427 436 427 488 c 0,3,4
 427 532 427 532 397.5 559 c 128,-1,5
 368 586 368 586 320 586 c 0,6,7
 278 586 278 586 245.5 562.5 c 128,-1,8
 213 539 213 539 202 490 c 1,9,-1
 88 530 l 1,10,11
 112 601 112 601 174.5 640.5 c 128,-1,12
 237 680 237 680 325 680 c 0,13,14
 426 680 426 680 489 629.5 c 128,-1,15
 552 579 552 579 552 488 c 0,16,17
 552 386 552 386 469 291.5 c 128,-1,18
 386 197 386 197 234 104 c 1,19,-1
 564 104 l 1,20,-1
 564 0 l 1,21,-1
 72 0 l 1,22,-1
 72 103 l 1,23,0
 200 192 200 192 277 258.5 c 128,-1,1
EndSplineSet
Substitution2: "'sups' Superscript in Latin lookup 6 subtable" uni00B2
AlternateSubs2: "'aalt' Access All Alternates in Latin lookup 0 subtable" uni00B2
EndChar
StartChar: four
Encoding: 52 52 233
Width: 632
GlyphClass: 5
Flags: W
LayerCount: 2
Fore
SplineSet
369 151 m 1,0,-1
 41 151 l 1,1,-1
 41 248 l 1,2,-1
 364 668 l 1,3,-1
 494 668 l 1,4,-1
 494 262 l 1,5,-1
 592 262 l 1,6,-1
 592 151 l 1,7,-1
 494 151 l 1,8,-1
 494 0 l 1,9,-1
 369 0 l 1,10,-1
 369 151 l 1,0,-1
369 262 m 1,11,-1
 369 506 l 1,12,-1
 365 506 l 1,13,-1
 174 262 l 1,14,-1
 369 262 l 1,11,-1
EndSplineSet
EndChar
StartChar: eight
Encoding: 56 56 237
Width: 632
GlyphClass: 1
Flags: W
LayerCount: 2
Fore
SplineSet
180 14 m 128,-1,1
 120 40 120 40 86.5 88.5 c 128,-1,2
 53 137 53 137 53 201 c 0,3,4
 53 259 53 259 85 304.5 c 128,-1,5
 117 350 117 350 174 375 c 1,6,7
 152 398 152 398 140 428.5 c 128,-1,8
 128 459 128 459 128 493 c 0,9,10
 128 545 128 545 152.5 588 c 128,-1,11
 177 631 177 631 220 656 c 128,-1,12
 263 681 263 681 316 681 c 0,13,14
 370 681 370 681 412.5 656 c 128,-1,15
 455 631 455 631 479 588 c 128,-1,16
 503 545 503 545 503 493 c 0,17,18
 503 459 503 459 491 428.5 c 128,-1,19
 479 398 479 398 458 375 c 1,20,21
 514 350 514 350 546.5 304 c 128,-1,22
 579 258 579 258 579 200 c 0,23,24
 579 136 579 136 545 88 c 128,-1,25
 511 40 511 40 451.5 14 c 128,-1,26
 392 -12 392 -12 316 -12 c 256,27,0
 240 -12 240 -12 180 14 c 128,-1,1
413 123 m 128,-1,29
 451 154 451 154 451 200 c 0,30,31
 451 247 451 247 413.5 276 c 128,-1,32
 376 305 376 305 316 305 c 0,33,34
 255 305 255 305 217.5 276 c 128,-1,35
 180 247 180 247 180 200 c 256,36,37
 180 153 180 153 218 122.5 c 128,-1,38
 256 92 256 92 316 92 c 0,39,28
 375 92 375 92 413 123 c 128,-1,29
375.5 431 m 128,-1,41
 400 456 400 456 400 492 c 256,42,43
 400 528 400 528 375.5 553 c 128,-1,44
 351 578 351 578 316 578 c 256,45,46
 281 578 281 578 256 553 c 128,-1,47
 231 528 231 528 231 492 c 256,48,49
 231 456 231 456 256 431 c 128,-1,50
 281 406 281 406 316 406 c 256,51,40
 351 406 351 406 375.5 431 c 128,-1,41
EndSplineSet
EndChar
StartChar: greater
Encoding: 62 62 317
Width: 632
GlyphClass: 1
Flags: W
LayerCount: 2
Fore
SplineSet
74 112 m 1,0,-1
 417 249 l 1,1,-1
 74 385 l 1,2,-1
 74 503 l 1,3,-1
 558 291 l 1,4,-1
 558 207 l 1,5,-1
 74 -6 l 1,6,-1
 74 112 l 1,0,-1
EndSplineSet
EndChar
StartChar: question
Encoding: 63 63 256
Width: 632
GlyphClass: 1
Flags: W
LayerCount: 2
Fore
SplineSet
245.5 340 m 128,-1,1
 271 378 271 378 335 408 c 0,2,3
 383 431 383 431 406.5 454 c 128,-1,4
 430 477 430 477 430 506 c 0,5,6
 430 539 430 539 400 559.5 c 128,-1,7
 370 580 370 580 322 580 c 0,8,9
 272 580 272 580 236.5 555 c 128,-1,10
 201 530 201 530 188 491 c 1,11,-1
 75 529 l 1,12,13
 97 599 97 599 163.5 639.5 c 128,-1,14
 230 680 230 680 324 680 c 0,15,16
 385 680 385 680 438.5 660 c 128,-1,17
 492 640 492 640 525 601.5 c 128,-1,18
 558 563 558 563 558 508 c 0,19,20
 558 450 558 450 526.5 412.5 c 128,-1,21
 495 375 495 375 428 335 c 0,22,23
 392 315 392 315 374.5 300.5 c 128,-1,24
 357 286 357 286 351 272 c 128,-1,25
 345 258 345 258 345 238 c 2,26,-1
 345 212 l 1,27,-1
 220 212 l 1,28,-1
 220 236 l 2,29,0
 220 302 220 302 245.5 340 c 128,-1,1
225.5 12.5 m 128,-1,31
 201 37 201 37 201 71 c 0,32,33
 201 106 201 106 225 130 c 128,-1,34
 249 154 249 154 284 154 c 0,35,36
 318 154 318 154 342.5 130 c 128,-1,37
 367 106 367 106 367 71 c 0,38,39
 367 37 367 37 342.5 12.5 c 128,-1,40
 318 -12 318 -12 284 -12 c 256,41,30
 250 -12 250 -12 225.5 12.5 c 128,-1,31
EndSplineSet
EndChar
StartChar: at
Encoding: 64 64 288
Width: 632
GlyphClass: 1
Flags: W
LayerCount: 2
Fore
SplineSet
163.5 -56 m 128,-1,1
 93 -13 93 -13 52.5 67 c 128,-1,2
 12 147 12 147 12 253 c 0,3,4
 12 357 12 357 51.5 437.5 c 128,-1,5
 91 518 91 518 161.5 562.5 c 128,-1,6
 232 607 232 607 323 607 c 0,7,8
 404 607 404 607 472 569 c 128,-1,9
 540 531 540 531 580 458.5 c 128,-1,10
 620 386 620 386 620 286 c 0,11,12
 620 215 620 215 600 167 c 128,-1,13
 580 119 580 119 548.5 96.5 c 128,-1,14
 517 74 517 74 482 74 c 0,15,16
 451 74 451 74 426 90.5 c 128,-1,17
 401 107 401 107 390 134 c 1,18,19
 372 103 372 103 345.5 89 c 128,-1,20
 319 75 319 75 289 75 c 0,21,22
 257 75 257 75 226.5 94 c 128,-1,23
 196 113 196 113 176 150 c 128,-1,24
 156 187 156 187 156 238 c 0,25,26
 156 340 156 340 208 389.5 c 128,-1,27
 260 439 260 439 334 439 c 0,28,29
 391 439 391 439 449 419 c 1,30,-1
 449 215 l 2,31,32
 449 177 449 177 461.5 160 c 128,-1,33
 474 143 474 143 493 143 c 0,34,35
 520 143 520 143 536 183 c 128,-1,36
 552 223 552 223 552 289 c 0,37,38
 552 366 552 366 523 423.5 c 128,-1,39
 494 481 494 481 441.5 512 c 128,-1,40
 389 543 389 543 321 543 c 0,41,42
 249 543 249 543 195 506.5 c 128,-1,43
 141 470 141 470 112 404.5 c 128,-1,44
 83 339 83 339 83 254 c 0,45,46
 83 166 83 166 114 100.5 c 128,-1,47
 145 35 145 35 199.5 0 c 128,-1,48
 254 -35 254 -35 323 -35 c 0,49,50
 384 -35 384 -35 439 1 c 1,51,-1
 439 -71 l 1,52,53
 386 -99 386 -99 323 -99 c 0,54,0
 234 -99 234 -99 163.5 -56 c 128,-1,1
353.5 177 m 128,-1,56
 375 203 375 203 375 245 c 2,57,-1
 375 360 l 1,58,59
 355 365 355 365 334 365 c 0,60,61
 294 365 294 365 266.5 338 c 128,-1,62
 239 311 239 311 239 244 c 0,63,64
 239 200 239 200 257.5 175.5 c 128,-1,65
 276 151 276 151 303 151 c 0,66,55
 332 151 332 151 353.5 177 c 128,-1,56
EndSplineSet
EndChar
StartChar: B
Encoding: 66 66 13
Width: 632
GlyphClass: 2
Flags: W
AnchorPoint: "Anchor-1" 324 668 basechar 0
AnchorPoint: "Anchor-0" 324 0 basechar 0
LayerCount: 2
Fore
SplineSet
84 668 m 1,0,-1
 339 668 l 2,1,2
 446 668 446 668 502 623.5 c 128,-1,3
 558 579 558 579 558 496 c 0,4,5
 558 448 558 448 536 410.5 c 128,-1,6
 514 373 514 373 471 353 c 1,7,8
 523 334 523 334 554 294 c 128,-1,9
 585 254 585 254 585 193 c 0,10,11
 585 99 585 99 524 49.5 c 128,-1,12
 463 0 463 0 353 0 c 2,13,-1
 84 0 l 1,14,-1
 84 668 l 1,0,-1
433.5 129 m 128,-1,16
 462 155 462 155 462 199 c 0,17,18
 462 242 462 242 433 267 c 128,-1,19
 404 292 404 292 349 292 c 2,20,-1
 203 292 l 1,21,-1
 203 103 l 1,22,-1
 350 103 l 2,23,15
 405 103 405 103 433.5 129 c 128,-1,16
413.5 418 m 128,-1,25
 438 441 438 441 438 480 c 256,26,27
 438 519 438 519 412 542 c 128,-1,28
 386 565 386 565 338 565 c 2,29,-1
 203 565 l 1,30,-1
 203 395 l 1,31,-1
 343 395 l 2,32,24
 389 395 389 395 413.5 418 c 128,-1,25
EndSplineSet
EndChar
StartChar: C
Encoding: 67 67 14
Width: 632
GlyphClass: 2
Flags: W
AnchorPoint: "Anchor-1" 338 668 basechar 0
AnchorPoint: "Anchor-0" 337 0 basechar 0
LayerCount: 2
Fore
SplineSet
186.5 31 m 128,-1,1
 122 74 122 74 87.5 152.5 c 128,-1,2
 53 231 53 231 53 335 c 0,3,4
 53 438 53 438 88.5 516 c 128,-1,5
 124 594 124 594 189 637 c 128,-1,6
 254 680 254 680 340 680 c 0,7,8
 419 680 419 680 481.5 639 c 128,-1,9
 544 598 544 598 576 524 c 1,10,-1
 473 486 l 1,11,12
 455 530 455 530 421.5 553.5 c 128,-1,13
 388 577 388 577 342 577 c 256,14,15
 296 577 296 577 258.5 548 c 128,-1,16
 221 519 221 519 199.5 464.5 c 128,-1,17
 178 410 178 410 178 335 c 0,18,19
 178 258 178 258 200 203 c 128,-1,20
 222 148 222 148 260 119.5 c 128,-1,21
 298 91 298 91 345 91 c 0,22,23
 387 91 387 91 423 113.5 c 128,-1,24
 459 136 459 136 479 181 c 1,25,-1
 579 144 l 1,26,27
 544 69 544 69 481.5 28.5 c 128,-1,28
 419 -12 419 -12 337 -12 c 0,29,0
 251 -12 251 -12 186.5 31 c 128,-1,1
EndSplineSet
EndChar
StartChar: D
Encoding: 68 68 19
Width: 632
GlyphClass: 2
Flags: W
AnchorPoint: "Anchor-1" 315 668 basechar 0
AnchorPoint: "Anchor-0" 322 0 basechar 0
LayerCount: 2
Fore
SplineSet
67 668 m 1,0,-1
 252 668 l 2,1,2
 411 668 411 668 503 590 c 128,-1,3
 595 512 595 512 595 335 c 0,4,5
 595 157 595 157 503 78.5 c 128,-1,6
 411 0 411 0 252 0 c 2,7,-1
 67 0 l 1,8,-1
 67 668 l 1,0,-1
411 152.5 m 128,-1,10
 472 200 472 200 472 335 c 0,11,12
 472 428 472 428 441.5 478.5 c 128,-1,13
 411 529 411 529 362 546.5 c 128,-1,14
 313 564 313 564 246 564 c 2,15,-1
 186 564 l 1,16,-1
 186 105 l 1,17,-1
 246 105 l 2,18,9
 350 105 350 105 411 152.5 c 128,-1,10
EndSplineSet
EndChar
StartChar: K
Encoding: 75 75 50
Width: 632
GlyphClass: 2
Flags: W
AnchorPoint: "Anchor-1" 318 668 basechar 0
AnchorPoint: "Anchor-0" 309 0 basechar 0
LayerCount: 2
Fore
SplineSet
72 668 m 1,0,-1
 191 668 l 1,1,-1
 191 365 l 1,2,-1
 450 668 l 1,3,-1
 592 668 l 1,4,-1
 349 387 l 1,5,-1
 611 0 l 1,6,-1
 468 0 l 1,7,-1
 270 293 l 1,8,-1
 191 204 l 1,9,-1
 191 0 l 1,10,-1
 72 0 l 1,11,-1
 72 668 l 1,0,-1
EndSplineSet
EndChar
StartChar: M
Encoding: 77 77 56
Width: 632
GlyphClass: 2
Flags: W
AnchorPoint: "Anchor-1" 316 668 basechar 0
AnchorPoint: "Anchor-0" 316 0 basechar 0
LayerCount: 2
Fore
SplineSet
41 668 m 1,0,-1
 205 668 l 1,1,-1
 317 162 l 1,2,-1
 321 162 l 1,3,-1
 432 668 l 1,4,-1
 591 668 l 1,5,-1
 591 0 l 1,6,-1
 492 0 l 1,7,-1
 492 541 l 1,8,-1
 488 541 l 1,9,-1
 366 0 l 1,10,-1
 265 0 l 1,11,-1
 143 541 l 1,12,-1
 139 541 l 1,13,-1
 139 0 l 1,14,-1
 41 0 l 1,15,-1
 41 668 l 1,0,-1
EndSplineSet
EndChar
StartChar: N
Encoding: 78 78 57
Width: 632
GlyphClass: 2
Flags: W
AnchorPoint: "Anchor-1" 316 668 basechar 0
AnchorPoint: "Anchor-0" 303 0 basechar 0
LayerCount: 2
Fore
SplineSet
63 668 m 1,0,-1
 213 668 l 1,1,-1
 454 160 l 1,2,-1
 458 160 l 1,3,-1
 458 668 l 1,4,-1
 569 668 l 1,5,-1
 569 0 l 1,6,-1
 419 0 l 1,7,-1
 178 508 l 1,8,-1
 174 508 l 1,9,-1
 174 0 l 1,10,-1
 63 0 l 1,11,-1
 63 668 l 1,0,-1
EndSplineSet
EndChar
StartChar: P
Encoding: 80 80 71
Width: 632
GlyphClass: 2
Flags: W
AnchorPoint: "Anchor-1" 325 668 basechar 0
AnchorPoint: "Anchor-0" 325 0 basechar 0
LayerCount: 2
Fore
SplineSet
85 668 m 1,0,-1
 343 668 l 2,1,2
 454 668 454 668 523 615 c 128,-1,3
 592 562 592 562 592 457 c 256,4,5
 592 352 592 352 523 299 c 128,-1,6
 454 246 454 246 343 246 c 2,7,-1
 204 246 l 1,8,-1
 204 0 l 1,9,-1
 85 0 l 1,10,-1
 85 668 l 1,0,-1
434.5 374.5 m 128,-1,12
 470 401 470 401 470 457 c 256,13,14
 470 513 470 513 434.5 539 c 128,-1,15
 399 565 399 565 338 565 c 2,16,-1
 204 565 l 1,17,-1
 204 348 l 1,18,-1
 338 348 l 2,19,11
 399 348 399 348 434.5 374.5 c 128,-1,12
EndSplineSet
EndChar
StartChar: T
Encoding: 84 84 83
Width: 632
GlyphClass: 2
Flags: W
AnchorPoint: "Anchor-1" 316 668 basechar 0
AnchorPoint: "Anchor-0" 316 0 basechar 0
LayerCount: 2
Fore
SplineSet
252 555 m 1,0,-1
 54 555 l 1,1,-1
 54 668 l 1,2,-1
 578 668 l 1,3,-1
 578 555 l 1,4,-1
 380 555 l 1,5,-1
 380 0 l 1,6,-1
 252 0 l 1,7,-1
 252 555 l 1,0,-1
EndSplineSet
EndChar
StartChar: V
Encoding: 86 86 96
Width: 632
GlyphClass: 2
Flags: W
AnchorPoint: "Anchor-1" 316 668 basechar 0
AnchorPoint: "Anchor-0" 316 0 basechar 0
LayerCount: 2
Fore
SplineSet
38 668 m 1,0,-1
 164 668 l 1,1,-1
 317 135 l 1,2,-1
 321 135 l 1,3,-1
 475 668 l 1,4,-1
 594 668 l 1,5,-1
 384 0 l 1,6,-1
 248 0 l 1,7,-1
 38 668 l 1,0,-1
EndSplineSet
EndChar
StartChar: W
Encoding: 87 87 97
Width: 632
GlyphClass: 2
Flags: W
AnchorPoint: "Anchor-1" 317 668 basechar 0
AnchorPoint: "Anchor-0" 317 0 basechar 0
LayerCount: 2
Fore
SplineSet
9 668 m 1,0,-1
 112 668 l 1,1,-1
 179 161 l 1,2,-1
 183 161 l 1,3,-1
 260 668 l 1,4,-1
 374 668 l 1,5,-1
 450 161 l 1,6,-1
 454 161 l 1,7,-1
 521 668 l 1,8,-1
 623 668 l 1,9,-1
 512 0 l 1,10,-1
 393 0 l 1,11,-1
 318 504 l 1,12,-1
 314 504 l 1,13,-1
 240 0 l 1,14,-1
 121 0 l 1,15,-1
 9 668 l 1,0,-1
EndSplineSet
EndChar
StartChar: a
Encoding: 97 97 112
Width: 632
GlyphClass: 2
Flags: W
AnchorPoint: "Anchor-2" 547 10 basechar 0
AnchorPoint: "Anchor-1" 314 496 basechar 0
AnchorPoint: "Anchor-0" 314 0 basechar 0
LayerCount: 2
Fore
SplineSet
116.5 26 m 128,-1,1
 68 64 68 64 68 130 c 0,2,3
 68 217 68 217 152.5 259.5 c 128,-1,4
 237 302 237 302 411 312 c 1,5,-1
 411 324 l 2,6,7
 411 424 411 424 307 424 c 0,8,9
 267 424 267 424 239.5 405 c 128,-1,10
 212 386 212 386 204 355 c 1,11,-1
 97 391 l 1,12,13
 120 445 120 445 177 477 c 128,-1,14
 234 509 234 509 313 509 c 0,15,16
 529 509 529 509 529 313 c 2,17,-1
 529 188 l 2,18,19
 529 65 529 65 547 0 c 1,20,-1
 435 0 l 1,21,-1
 416 67 l 1,22,23
 367 -12 367 -12 242 -12 c 0,24,0
 165 -12 165 -12 116.5 26 c 128,-1,1
411 201 m 2,26,-1
 411 236 l 1,27,28
 300 228 300 228 247.5 206 c 128,-1,29
 195 184 195 184 195 140 c 0,30,31
 195 110 195 110 218.5 91.5 c 128,-1,32
 242 73 242 73 282 73 c 0,33,25
 411 73 411 73 411 201 c 2,26,-1
EndSplineSet
Substitution2: "Single Substitution lookup 14 subtable" ordfeminine
AlternateSubs2: "'aalt' Access All Alternates in Latin lookup 0 subtable" ordfeminine
EndChar
StartChar: e
Encoding: 101 101 133
Width: 632
GlyphClass: 2
Flags: W
AnchorPoint: "Anchor-2" 497 10 basechar 0
AnchorPoint: "Anchor-1" 330 496 basechar 0
AnchorPoint: "Anchor-0" 317 0 basechar 0
LayerCount: 2
Fore
SplineSet
190.5 20.5 m 128,-1,1
 131 53 131 53 98.5 112 c 128,-1,2
 66 171 66 171 66 249 c 256,3,4
 66 327 66 327 100 386 c 128,-1,5
 134 445 134 445 193 477 c 128,-1,6
 252 509 252 509 324 509 c 0,7,8
 403 509 403 509 461 471 c 128,-1,9
 519 433 519 433 548 367 c 128,-1,10
 577 301 577 301 571 219 c 1,11,-1
 188 219 l 1,12,13
 195 150 195 150 235.5 118 c 128,-1,14
 276 86 276 86 332 86 c 0,15,16
 403 86 403 86 440 131 c 1,17,-1
 541 94 l 1,18,19
 508 44 508 44 454 16 c 128,-1,20
 400 -12 400 -12 329 -12 c 0,21,0
 250 -12 250 -12 190.5 20.5 c 128,-1,1
417 381.5 m 128,-1,23
 383 415 383 415 327 415 c 0,24,25
 273 415 273 415 235.5 386.5 c 128,-1,26
 198 358 198 358 188 297 c 1,27,-1
 454 297 l 1,28,22
 451 348 451 348 417 381.5 c 128,-1,23
EndSplineSet
EndChar
StartChar: f
Encoding: 102 102 142
Width: 632
GlyphClass: 2
Flags: W
AnchorPoint: "Anchor-1" 295 796 basechar 0
AnchorPoint: "Anchor-0" 295 0 basechar 0
LayerCount: 2
Fore
SplineSet
233 401 m 1,0,-1
 92 401 l 1,1,-1
 92 496 l 1,2,-1
 233 496 l 1,3,-1
 233 576 l 2,4,5
 233 632 233 632 250 662.5 c 128,-1,6
 267 693 267 693 303 705 c 128,-1,7
 339 717 339 717 402 717 c 2,8,-1
 582 717 l 1,9,-1
 582 618 l 1,10,-1
 420 618 l 2,11,12
 382 618 382 618 370 608.5 c 128,-1,13
 358 599 358 599 358 566 c 2,14,-1
 358 496 l 1,15,-1
 487 496 l 1,16,-1
 487 401 l 1,17,-1
 358 401 l 1,18,-1
 358 0 l 1,19,-1
 233 0 l 1,20,-1
 233 401 l 1,0,-1
EndSplineSet
EndChar
StartChar: g
Encoding: 103 103 143
Width: 632
GlyphClass: 2
Flags: W
AnchorPoint: "Anchor-1" 316 496 basechar 0
AnchorPoint: "Anchor-0" 319 -251 basechar 0
LayerCount: 2
Fore
SplineSet
182 -171 m 128,-1,1
 122 -144 122 -144 96 -85 c 1,2,-1
 198 -42 l 1,3,4
 211 -71 211 -71 241 -86.5 c 128,-1,5
 271 -102 271 -102 316 -102 c 0,6,7
 368 -102 368 -102 401.5 -76 c 128,-1,8
 435 -50 435 -50 435 6 c 2,9,-1
 435 96 l 1,10,11
 404 56 404 56 361 35 c 128,-1,12
 318 14 318 14 269 14 c 0,13,14
 210 14 210 14 159.5 43.5 c 128,-1,15
 109 73 109 73 79 128.5 c 128,-1,16
 49 184 49 184 49 258 c 0,17,18
 49 339 49 339 78.5 395.5 c 128,-1,19
 108 452 108 452 157.5 480.5 c 128,-1,20
 207 509 207 509 265 509 c 0,21,22
 317 509 317 509 362 486 c 128,-1,23
 407 463 407 463 435 422 c 1,24,-1
 453 496 l 1,25,-1
 559 496 l 1,26,-1
 559 25 l 2,27,28
 559 -87 559 -87 493.5 -142.5 c 128,-1,29
 428 -198 428 -198 314 -198 c 0,30,0
 242 -198 242 -198 182 -171 c 128,-1,1
403.5 149 m 128,-1,32
 439 186 439 186 439 260 c 256,33,34
 439 334 439 334 403 373 c 128,-1,35
 367 412 367 412 309 412 c 256,36,37
 251 412 251 412 214.5 373.5 c 128,-1,38
 178 335 178 335 178 263 c 256,39,40
 178 191 178 191 214.5 151.5 c 128,-1,41
 251 112 251 112 309 112 c 0,42,31
 368 112 368 112 403.5 149 c 128,-1,32
EndSplineSet
EndChar
StartChar: h
Encoding: 104 104 147
Width: 632
GlyphClass: 2
Flags: W
AnchorPoint: "Anchor-1" 316 796 basechar 0
AnchorPoint: "Anchor-0" 316 0 basechar 0
LayerCount: 2
Fore
SplineSet
90 708 m 1,0,-1
 214 708 l 1,1,-1
 214 427 l 1,2,3
 234 459 234 459 276.5 484 c 128,-1,4
 319 509 319 509 374 509 c 0,5,6
 547 509 547 509 547 321 c 2,7,-1
 547 0 l 1,8,-1
 423 0 l 1,9,-1
 423 293 l 2,10,11
 423 412 423 412 329 412 c 0,12,13
 273 412 273 412 243.5 372.5 c 128,-1,14
 214 333 214 333 214 260 c 2,15,-1
 214 0 l 1,16,-1
 90 0 l 1,17,-1
 90 708 l 1,0,-1
EndSplineSet
EndChar
StartChar: l
Encoding: 108 108 163
Width: 632
GlyphClass: 2
Flags: W
AnchorPoint: "Anchor-3" 377 498 basechar 0
AnchorPoint: "Anchor-1" 289 796 basechar 0
AnchorPoint: "Anchor-0" 383 0 basechar 0
LayerCount: 2
Fore
SplineSet
261 10.5 m 128,-1,1
 230 21 230 21 216.5 48 c 128,-1,2
 203 75 203 75 203 127 c 2,3,-1
 203 613 l 1,4,-1
 88 613 l 1,5,-1
 88 708 l 1,6,-1
 328 708 l 1,7,-1
 328 159 l 2,8,9
 328 133 328 133 332.5 121 c 128,-1,10
 337 109 337 109 349.5 104.5 c 128,-1,11
 362 100 362 100 388 100 c 2,12,-1
 564 100 l 1,13,-1
 564 0 l 1,14,-1
 349 0 l 2,15,0
 292 0 292 0 261 10.5 c 128,-1,1
EndSplineSet
EndChar
StartChar: n
Encoding: 110 110 168
Width: 632
GlyphClass: 2
Flags: W
AnchorPoint: "Anchor-1" 317 496 basechar 0
AnchorPoint: "Anchor-0" 314 0 basechar 0
LayerCount: 2
Fore
SplineSet
89 496 m 1,0,-1
 197 496 l 1,1,-1
 212 426 l 1,2,3
 232 458 232 458 274.5 483.5 c 128,-1,4
 317 509 317 509 373 509 c 0,5,6
 546 509 546 509 546 321 c 2,7,-1
 546 0 l 1,8,-1
 421 0 l 1,9,-1
 421 293 l 2,10,11
 421 412 421 412 328 412 c 0,12,13
 272 412 272 412 242.5 372.5 c 128,-1,14
 213 333 213 333 213 260 c 2,15,-1
 213 0 l 1,16,-1
 89 0 l 1,17,-1
 89 496 l 1,0,-1
EndSplineSet
EndChar
StartChar: p
Encoding: 112 112 182
Width: 632
GlyphClass: 2
Flags: W
AnchorPoint: "Anchor-1" 300 496 basechar 0
AnchorPoint: "Anchor-0" 300 0 basechar 0
LayerCount: 2
Fore
SplineSet
75 496 m 1,0,-1
 182 496 l 1,1,-1
 200 422 l 1,2,3
 224 462 224 462 268.5 485.5 c 128,-1,4
 313 509 313 509 361 509 c 0,5,6
 428 509 428 509 479 477.5 c 128,-1,7
 530 446 530 446 558 387 c 128,-1,8
 586 328 586 328 586 248 c 0,9,10
 586 167 586 167 558 108.5 c 128,-1,11
 530 50 530 50 479 19 c 128,-1,12
 428 -12 428 -12 361 -12 c 0,13,14
 313 -12 313 -12 268.5 12 c 128,-1,15
 224 36 224 36 199 75 c 1,16,-1
 199 -162 l 1,17,-1
 75 -162 l 1,18,-1
 75 496 l 1,0,-1
421 129 m 128,-1,20
 458 172 458 172 458 248 c 256,21,22
 458 324 458 324 421 368 c 128,-1,23
 384 412 384 412 326 412 c 0,24,25
 267 412 267 412 230.5 370.5 c 128,-1,26
 194 329 194 329 194 250 c 0,27,28
 194 170 194 170 230.5 128 c 128,-1,29
 267 86 267 86 326 86 c 0,30,19
 384 86 384 86 421 129 c 128,-1,20
EndSplineSet
EndChar
StartChar: t
Encoding: 116 116 194
Width: 632
GlyphClass: 2
Flags: W
AnchorPoint: "Anchor-3" 360 550 basechar 0
AnchorPoint: "Anchor-1" 287 496 basechar 0
AnchorPoint: "Anchor-0" 327 0 basechar 0
LayerCount: 2
Fore
SplineSet
264.5 10.5 m 128,-1,1
 234 21 234 21 220 49 c 128,-1,2
 206 77 206 77 206 133 c 2,3,-1
 206 401 l 1,4,-1
 103 401 l 1,5,-1
 103 496 l 1,6,-1
 206 496 l 1,7,-1
 206 620 l 1,8,-1
 330 620 l 1,9,-1
 330 496 l 1,10,-1
 536 496 l 1,11,-1
 536 401 l 1,12,-1
 330 401 l 1,13,-1
 330 160 l 2,14,15
 330 123 330 123 342.5 111.5 c 128,-1,16
 355 100 355 100 392 100 c 2,17,-1
 486 100 l 1,18,-1
 486 0 l 1,19,-1
 354 0 l 2,20,0
 295 0 295 0 264.5 10.5 c 128,-1,1
EndSplineSet
EndChar
StartChar: w
Encoding: 119 119 208
Width: 632
GlyphClass: 2
Flags: W
AnchorPoint: "Anchor-1" 317 496 basechar 0
AnchorPoint: "Anchor-0" 316 0 basechar 0
LayerCount: 2
Fore
SplineSet
21 496 m 1,0,-1
 125 496 l 1,1,-1
 196 139 l 1,2,-1
 200 139 l 1,3,-1
 266 496 l 1,4,-1
 368 496 l 1,5,-1
 435 140 l 1,6,-1
 439 140 l 1,7,-1
 509 496 l 1,8,-1
 611 496 l 1,9,-1
 501 0 l 1,10,-1
 390 0 l 1,11,-1
 317 359 l 1,12,-1
 313 359 l 1,13,-1
 243 0 l 1,14,-1
 132 0 l 1,15,-1
 21 496 l 1,0,-1
EndSplineSet
EndChar
StartChar: x
Encoding: 120 120 213
Width: 632
GlyphClass: 2
Flags: W
AnchorPoint: "Anchor-1" 317 496 basechar 0
AnchorPoint: "Anchor-0" 317 0 basechar 0
LayerCount: 2
Fore
SplineSet
247 257 m 1,0,-1
 67 496 l 1,1,-1
 204 496 l 1,2,-1
 315 349 l 1,3,-1
 319 349 l 1,4,-1
 430 496 l 1,5,-1
 566 496 l 1,6,-1
 386 257 l 1,7,-1
 579 0 l 1,8,-1
 441 0 l 1,9,-1
 318 165 l 1,10,-1
 314 165 l 1,11,-1
 191 0 l 1,12,-1
 54 0 l 1,13,-1
 247 257 l 1,0,-1
EndSplineSet
EndChar
StartChar: z
Encoding: 122 122 219
Width: 632
GlyphClass: 2
Flags: W
AnchorPoint: "Anchor-1" 327 496 basechar 0
AnchorPoint: "Anchor-0" 314 0 basechar 0
LayerCount: 2
Fore
SplineSet
82 100 m 1,0,-1
 382 396 l 1,1,-1
 95 396 l 1,2,-1
 95 496 l 1,3,-1
 547 496 l 1,4,-1
 547 396 l 1,5,-1
 248 100 l 1,6,-1
 560 100 l 1,7,-1
 560 0 l 1,8,-1
 82 0 l 1,9,-1
 82 100 l 1,0,-1
EndSplineSet
EndChar
StartChar: braceleft
Encoding: 123 123 270
Width: 632
GlyphClass: 1
Flags: W
LayerCount: 2
Fore
SplineSet
242.5 -129 m 128,-1,1
 208 -96 208 -96 208 -21 c 2,2,-1
 208 129 l 2,3,4
 208 165 208 165 200.5 184.5 c 128,-1,5
 193 204 193 204 173.5 212.5 c 128,-1,6
 154 221 154 221 117 223 c 1,7,-1
 117 323 l 1,8,9
 154 325 154 325 173.5 333.5 c 128,-1,10
 193 342 193 342 200.5 361.5 c 128,-1,11
 208 381 208 381 208 417 c 2,12,-1
 208 567 l 2,13,14
 208 642 208 642 242.5 675 c 128,-1,15
 277 708 277 708 361 708 c 2,16,-1
 490 708 l 1,17,-1
 490 611 l 1,18,-1
 379 611 l 2,19,20
 349 611 349 611 338 602 c 128,-1,21
 327 593 327 593 327 568 c 2,22,-1
 327 408 l 2,23,24
 327 349 327 349 307.5 320 c 128,-1,25
 288 291 288 291 240 276 c 1,26,-1
 240 270 l 1,27,28
 288 255 288 255 307.5 226 c 128,-1,29
 327 197 327 197 327 138 c 2,30,-1
 327 -22 l 2,31,32
 327 -47 327 -47 338 -56 c 128,-1,33
 349 -65 349 -65 379 -65 c 2,34,-1
 490 -65 l 1,35,-1
 490 -162 l 1,36,-1
 361 -162 l 2,37,0
 277 -162 277 -162 242.5 -129 c 128,-1,1
EndSplineSet
EndChar
StartChar: bar
Encoding: 124 124 296
Width: 632
GlyphClass: 1
Flags: W
LayerCount: 2
Fore
SplineSet
256 838 m 1,0,-1
 376 838 l 1,1,-1
 376 -162 l 1,2,-1
 256 -162 l 1,3,-1
 256 838 l 1,0,-1
EndSplineSet
EndChar
StartChar: asciitilde
Encoding: 126 126 324
Width: 632
GlyphClass: 1
Flags: W
LayerCount: 2
Fore
SplineSet
119.5 302 m 128,-1,1
 149 341 149 341 212 341 c 0,2,3
 239 341 239 341 263.5 332.5 c 128,-1,4
 288 324 288 324 324 307 c 0,5,6
 354 293 354 293 372 286 c 128,-1,7
 390 279 390 279 409 279 c 0,8,9
 435 279 435 279 447.5 297.5 c 128,-1,10
 460 316 460 316 459 360 c 1,11,-1
 548 330 l 1,12,13
 542 255 542 255 512.5 216 c 128,-1,14
 483 177 483 177 420 177 c 0,15,16
 393 177 393 177 368.5 185.5 c 128,-1,17
 344 194 344 194 308 211 c 0,18,19
 278 225 278 225 260 232 c 128,-1,20
 242 239 242 239 223 239 c 0,21,22
 197 239 197 239 184.5 220.5 c 128,-1,23
 172 202 172 202 173 158 c 1,24,-1
 84 188 l 1,25,0
 90 263 90 263 119.5 302 c 128,-1,1
EndSplineSet
EndChar
StartChar: cent
Encoding: 162 162 302
Width: 632
GlyphClass: 1
Flags: W
LayerCount: 2
Fore
SplineSet
151 72 m 128,-1,1
 97 144 97 144 97 249 c 0,2,3
 97 316 97 316 122 371 c 128,-1,4
 147 426 147 426 194.5 461.5 c 128,-1,5
 242 497 242 497 307 505 c 1,6,-1
 307 586 l 1,7,-1
 370 586 l 1,8,-1
 370 505 l 1,9,10
 435 499 435 499 481.5 467 c 128,-1,11
 528 435 528 435 552 385 c 1,12,-1
 447 347 l 1,13,14
 421 397 421 397 370 406 c 1,15,-1
 370 89 l 1,16,17
 422 97 422 97 449 141 c 1,18,-1
 551 103 l 1,19,20
 526 57 526 57 478.5 26.5 c 128,-1,21
 431 -4 431 -4 370 -11 c 1,22,-1
 370 -90 l 1,23,-1
 307 -90 l 1,24,-1
 307 -11 l 1,25,0
 205 0 205 0 151 72 c 128,-1,1
246 348 m 128,-1,27
 224 307 224 307 224 249 c 256,28,29
 224 191 224 191 245.5 148.5 c 128,-1,30
 267 106 267 106 307 93 c 1,31,-1
 307 403 l 1,32,26
 268 389 268 389 246 348 c 128,-1,27
EndSplineSet
EndChar
StartChar: currency
Encoding: 164 164 303
Width: 632
GlyphClass: 1
Flags: W
LayerCount: 2
Fore
SplineSet
75 124 m 1,0,-1
 141 190 l 1,1,2
 97 249 97 249 97 320 c 256,3,4
 97 391 97 391 141 451 c 1,5,-1
 75 517 l 1,6,-1
 120 561 l 1,7,-1
 186 495 l 1,8,9
 246 539 246 539 316 539 c 256,10,11
 386 539 386 539 446 495 c 1,12,-1
 512 561 l 1,13,-1
 557 517 l 1,14,-1
 491 451 l 1,15,16
 535 391 535 391 535 320 c 256,17,18
 535 249 535 249 491 190 c 1,19,-1
 557 124 l 1,20,-1
 512 79 l 1,21,-1
 446 145 l 1,22,23
 385 102 385 102 316 102 c 256,24,25
 247 102 247 102 186 145 c 1,26,-1
 120 79 l 1,27,-1
 75 124 l 1,0,-1
399 236.5 m 128,-1,29
 433 271 433 271 433 320 c 0,30,31
 433 370 433 370 399 404.5 c 128,-1,32
 365 439 365 439 316 439 c 256,33,34
 267 439 267 439 233 404.5 c 128,-1,35
 199 370 199 370 199 320 c 0,36,37
 199 271 199 271 233 236.5 c 128,-1,38
 267 202 267 202 316 202 c 256,39,28
 365 202 365 202 399 236.5 c 128,-1,29
EndSplineSet
EndChar
StartChar: brokenbar
Encoding: 166 166 297
Width: 632
GlyphClass: 1
Flags: W
LayerCount: 2
Fore
SplineSet
262 233 m 1,0,-1
 370 233 l 1,1,-1
 370 -162 l 1,2,-1
 262 -162 l 1,3,-1
 262 233 l 1,0,-1
262 838 m 1,4,-1
 370 838 l 1,5,-1
 370 443 l 1,6,-1
 262 443 l 1,7,-1
 262 838 l 1,4,-1
EndSplineSet
EndChar
StartChar: section
Encoding: 167 167 291
Width: 632
GlyphClass: 1
Flags: W
LayerCount: 2
Fore
SplineSet
178 -137.5 m 128,-1,1
 125 -102 125 -102 104 -39 c 1,2,-1
 213 -2 l 1,3,4
 223 -39 223 -39 248 -57.5 c 128,-1,5
 273 -76 273 -76 315 -76 c 0,6,7
 353 -76 353 -76 375.5 -59.5 c 128,-1,8
 398 -43 398 -43 398 -19 c 0,9,10
 398 1 398 1 380.5 17 c 128,-1,11
 363 33 363 33 311 59 c 2,12,-1
 206 112 l 2,13,14
 132 149 132 149 98 188.5 c 128,-1,15
 64 228 64 228 64 285 c 0,16,17
 64 328 64 328 88.5 361 c 128,-1,18
 113 394 113 394 163 421 c 1,19,20
 137 445 137 445 125.5 468.5 c 128,-1,21
 114 492 114 492 114 520 c 0,22,23
 114 567 114 567 141.5 603 c 128,-1,24
 169 639 169 639 216.5 659.5 c 128,-1,25
 264 680 264 680 323 680 c 0,26,27
 401 680 401 680 454 644.5 c 128,-1,28
 507 609 507 609 528 546 c 1,29,-1
 419 509 l 1,30,31
 409 546 409 546 384 564.5 c 128,-1,32
 359 583 359 583 317 583 c 0,33,34
 279 583 279 583 256.5 566.5 c 128,-1,35
 234 550 234 550 234 526 c 0,36,37
 234 506 234 506 251.5 490 c 128,-1,38
 269 474 269 474 321 448 c 2,39,-1
 426 395 l 2,40,41
 500 358 500 358 534 318.5 c 128,-1,42
 568 279 568 279 568 222 c 0,43,44
 568 179 568 179 543.5 146 c 128,-1,45
 519 113 519 113 469 86 c 1,46,47
 495 62 495 62 506.5 38.5 c 128,-1,48
 518 15 518 15 518 -13 c 0,49,50
 518 -60 518 -60 490.5 -96 c 128,-1,51
 463 -132 463 -132 415.5 -152.5 c 128,-1,52
 368 -173 368 -173 309 -173 c 0,53,0
 231 -173 231 -173 178 -137.5 c 128,-1,1
449 213 m 0,55,56
 449 238 449 238 431 255.5 c 128,-1,57
 413 273 413 273 372 295 c 2,58,-1
 241 361 l 1,59,60
 183 333 183 333 183 294 c 0,61,62
 183 269 183 269 201 251.5 c 128,-1,63
 219 234 219 234 260 212 c 2,64,-1
 391 146 l 1,65,54
 449 174 449 174 449 213 c 0,55,56
EndSplineSet
EndChar
StartChar: plusminus
Encoding: 177 177 321
Width: 632
GlyphClass: 1
Flags: W
LayerCount: 2
Fore
SplineSet
264 281 m 1,0,-1
 65 281 l 1,1,-1
 65 371 l 1,2,-1
 264 371 l 1,3,-1
 264 496 l 1,4,-1
 369 496 l 1,5,-1
 369 371 l 1,6,-1
 567 371 l 1,7,-1
 567 281 l 1,8,-1
 369 281 l 1,9,-1
 369 158 l 1,10,-1
 264 158 l 1,11,-1
 264 281 l 1,0,-1
65 106 m 1,12,-1
 567 106 l 1,13,-1
 567 0 l 1,14,-1
 65 0 l 1,15,-1
 65 106 l 1,12,-1
EndSplineSet
EndChar
StartChar: uni00B3
Encoding: 179 179 246
Width: 632
GlyphClass: 1
Flags: W
LayerCount: 2
Fore
SplineSet
214.5 382.5 m 128,-1,1
 175 408 175 408 158 453 c 1,2,-1
 237 478 l 1,3,4
 245 452 245 452 264.5 437.5 c 128,-1,5
 284 423 284 423 314 423 c 0,6,7
 346 423 346 423 366 439 c 128,-1,8
 386 455 386 455 386 482 c 0,9,10
 386 519 386 519 356.5 532 c 128,-1,11
 327 545 327 545 273 543 c 1,12,-1
 273 614 l 1,13,14
 322 612 322 612 349 624.5 c 128,-1,15
 376 637 376 637 376 669 c 0,16,17
 376 694 376 694 357.5 707 c 128,-1,18
 339 720 339 720 313 720 c 0,19,20
 256 720 256 720 241 671 c 1,21,-1
 163 695 l 1,22,23
 180 738 180 738 220 762 c 128,-1,24
 260 786 260 786 318 786 c 0,25,26
 380 786 380 786 422 757.5 c 128,-1,27
 464 729 464 729 464 675 c 0,28,29
 464 645 464 645 448 620.5 c 128,-1,30
 432 596 432 596 407 583 c 1,31,32
 439 570 439 570 457 543 c 128,-1,33
 475 516 475 516 475 483 c 0,34,35
 475 423 475 423 428.5 390 c 128,-1,36
 382 357 382 357 313 357 c 0,37,0
 254 357 254 357 214.5 382.5 c 128,-1,1
EndSplineSet
EndChar
StartChar: threequarters
Encoding: 190 190 243
Width: 632
GlyphClass: 3
Flags: W
LayerCount: 2
Fore
SplineSet
465 668 m 1,0,-1
 561 668 l 1,1,-1
 199 0 l 1,2,-1
 103 0 l 1,3,-1
 465 668 l 1,0,-1
490 60 m 1,4,-1
 335 60 l 1,5,-1
 335 125 l 1,6,-1
 483 308 l 1,7,-1
 567 308 l 1,8,-1
 567 129 l 1,9,-1
 613 129 l 1,10,-1
 613 60 l 1,11,-1
 567 60 l 1,12,-1
 567 0 l 1,13,-1
 490 0 l 1,14,-1
 490 60 l 1,4,-1
491 129 m 1,15,-1
 491 217 l 1,16,-1
 489 217 l 1,17,-1
 419 129 l 1,18,-1
 491 129 l 1,15,-1
65 379 m 128,-1,20
 33 396 33 396 19 429 c 1,21,-1
 94 455 l 1,22,23
 98 440 98 440 111.5 432 c 128,-1,24
 125 424 125 424 144 424 c 256,25,26
 163 424 163 424 174.5 433 c 128,-1,27
 186 442 186 442 186 456 c 0,28,29
 186 474 186 474 169.5 482.5 c 128,-1,30
 153 491 153 491 113 490 c 1,31,-1
 113 557 l 1,32,33
 151 556 151 556 165.5 564.5 c 128,-1,34
 180 573 180 573 180 590 c 0,35,36
 180 603 180 603 169.5 610.5 c 128,-1,37
 159 618 159 618 142 618 c 0,38,39
 126 618 126 618 113.5 611 c 128,-1,40
 101 604 101 604 95 591 c 1,41,-1
 23 617 l 1,42,43
 37 648 37 648 69 664 c 128,-1,44
 101 680 101 680 146 680 c 0,45,46
 197 680 197 680 229 657.5 c 128,-1,47
 261 635 261 635 261 597 c 0,48,49
 261 574 261 574 250 555.5 c 128,-1,50
 239 537 239 537 222 529 c 1,51,52
 244 521 244 521 257 502 c 128,-1,53
 270 483 270 483 270 460 c 0,54,55
 270 415 270 415 233.5 388.5 c 128,-1,56
 197 362 197 362 143 362 c 0,57,19
 97 362 97 362 65 379 c 128,-1,20
EndSplineSet
Ligature2: "'frac' Diagonal Fractions in Latin lookup 7 subtable" three slash four
EndChar
StartChar: questiondown
Encoding: 191 191 257
Width: 632
GlyphClass: 1
Flags: W
LayerCount: 2
Fore
SplineSet
193.5 -162 m 128,-1,1
 140 -142 140 -142 107 -103.5 c 128,-1,2
 74 -65 74 -65 74 -10 c 0,3,4
 74 48 74 48 105.5 85.5 c 128,-1,5
 137 123 137 123 204 163 c 0,6,7
 240 183 240 183 257.5 197.5 c 128,-1,8
 275 212 275 212 281 226 c 128,-1,9
 287 240 287 240 287 260 c 2,10,-1
 287 286 l 1,11,-1
 412 286 l 1,12,-1
 412 262 l 2,13,14
 412 196 412 196 386.5 158 c 128,-1,15
 361 120 361 120 297 90 c 0,16,17
 249 67 249 67 225.5 44 c 128,-1,18
 202 21 202 21 202 -8 c 0,19,20
 202 -41 202 -41 232 -61.5 c 128,-1,21
 262 -82 262 -82 310 -82 c 0,22,23
 360 -82 360 -82 395.5 -57 c 128,-1,24
 431 -32 431 -32 444 7 c 1,25,-1
 557 -31 l 1,26,27
 535 -101 535 -101 468.5 -141.5 c 128,-1,28
 402 -182 402 -182 308 -182 c 0,29,0
 247 -182 247 -182 193.5 -162 c 128,-1,1
289.5 368 m 128,-1,31
 265 392 265 392 265 427 c 0,32,33
 265 461 265 461 289.5 485.5 c 128,-1,34
 314 510 314 510 348 510 c 256,35,36
 382 510 382 510 406.5 485.5 c 128,-1,37
 431 461 431 461 431 427 c 0,38,39
 431 392 431 392 407 368 c 128,-1,40
 383 344 383 344 348 344 c 0,41,30
 314 344 314 344 289.5 368 c 128,-1,31
EndSplineSet
EndChar
StartChar: Eth
Encoding: 208 208 22
Width: 632
GlyphClass: 1
Flags: W
LayerCount: 2
Fore
SplineSet
67 293 m 1,0,-1
 19 293 l 1,1,-1
 19 399 l 1,2,-1
 67 399 l 1,3,-1
 67 668 l 1,4,-1
 252 668 l 2,5,6
 411 668 411 668 503 590 c 128,-1,7
 595 512 595 512 595 335 c 0,8,9
 595 157 595 157 503 78.5 c 128,-1,10
 411 0 411 0 252 0 c 2,11,-1
 67 0 l 1,12,-1
 67 293 l 1,0,-1
411 152.5 m 128,-1,14
 472 200 472 200 472 335 c 0,15,16
 472 428 472 428 441.5 478.5 c 128,-1,17
 411 529 411 529 362 546.5 c 128,-1,18
 313 564 313 564 246 564 c 2,19,-1
 186 564 l 1,20,-1
 186 399 l 1,21,-1
 321 399 l 1,22,-1
 321 293 l 1,23,-1
 186 293 l 1,24,-1
 186 105 l 1,25,-1
 246 105 l 2,26,13
 350 105 350 105 411 152.5 c 128,-1,14
EndSplineSet
EndChar
StartChar: multiply
Encoding: 215 215 313
Width: 632
GlyphClass: 1
Flags: W
LayerCount: 2
Fore
SplineSet
97 102 m 1,0,-1
 243 248 l 1,1,-1
 95 394 l 1,2,-1
 170 469 l 1,3,-1
 317 321 l 1,4,-1
 463 469 l 1,5,-1
 537 394 l 1,6,-1
 390 248 l 1,7,-1
 536 102 l 1,8,-1
 460 28 l 1,9,-1
 317 174 l 1,10,-1
 172 28 l 1,11,-1
 97 102 l 1,0,-1
EndSplineSet
EndChar
StartChar: Thorn
Encoding: 222 222 72
Width: 632
GlyphClass: 2
Flags: W
AnchorPoint: "Anchor-1" 315 668 basechar 0
AnchorPoint: "Anchor-0" 315 0 basechar 0
LayerCount: 2
Fore
SplineSet
85 668 m 1,0,-1
 204 668 l 1,1,-1
 204 552 l 1,2,-1
 343 552 l 2,3,4
 454 552 454 552 523 499 c 128,-1,5
 592 446 592 446 592 341 c 256,6,7
 592 236 592 236 523 183 c 128,-1,8
 454 130 454 130 343 130 c 2,9,-1
 204 130 l 1,10,-1
 204 0 l 1,11,-1
 85 0 l 1,12,-1
 85 668 l 1,0,-1
434.5 258.5 m 128,-1,14
 470 285 470 285 470 341 c 256,15,16
 470 397 470 397 435 423 c 128,-1,17
 400 449 400 449 338 449 c 2,18,-1
 204 449 l 1,19,-1
 204 232 l 1,20,-1
 338 232 l 2,21,13
 399 232 399 232 434.5 258.5 c 128,-1,14
EndSplineSet
EndChar
StartChar: eth
Encoding: 240 240 132
Width: 632
GlyphClass: 1
Flags: W
LayerCount: 2
Fore
SplineSet
175.5 15.5 m 128,-1,1
 118 43 118 43 84.5 96 c 128,-1,2
 51 149 51 149 51 222 c 0,3,4
 51 292 51 292 84.5 345.5 c 128,-1,5
 118 399 118 399 173 428 c 128,-1,6
 228 457 228 457 291 457 c 0,7,8
 341 457 341 457 382 438 c 128,-1,9
 423 419 423 419 446 385 c 1,10,11
 443 505 443 505 379 564 c 1,12,-1
 318 503 l 1,13,-1
 276 545 l 1,14,-1
 329 597 l 1,15,16
 262 632 262 632 188 628 c 1,17,-1
 188 728 l 1,18,19
 313 732 313 732 406 675 c 1,20,-1
 458 726 l 1,21,-1
 500 685 l 1,22,-1
 455 640 l 1,23,24
 510 594 510 594 541.5 512 c 128,-1,25
 573 430 573 430 573 322 c 0,26,27
 573 172 573 172 507 80 c 128,-1,28
 441 -12 441 -12 302 -12 c 0,29,0
 233 -12 233 -12 175.5 15.5 c 128,-1,1
403.5 119.5 m 128,-1,31
 440 157 440 157 440 222 c 0,32,33
 440 286 440 286 403 324.5 c 128,-1,34
 366 363 366 363 310 363 c 0,35,36
 253 363 253 363 216 325 c 128,-1,37
 179 287 179 287 179 223 c 0,38,39
 179 157 179 157 216 119.5 c 128,-1,40
 253 82 253 82 310 82 c 256,41,30
 367 82 367 82 403.5 119.5 c 128,-1,31
EndSplineSet
EndChar
StartChar: divide
Encoding: 247 247 314
Width: 632
GlyphClass: 1
Flags: W
LayerCount: 2
Fore
SplineSet
62 301 m 1,0,-1
 570 301 l 1,1,-1
 570 195 l 1,2,-1
 62 195 l 1,3,-1
 62 301 l 1,0,-1
265 20.5 m 128,-1,5
 244 42 244 42 244 73 c 0,6,7
 244 102 244 102 265 123.5 c 128,-1,8
 286 145 286 145 316 145 c 256,9,10
 346 145 346 145 367.5 123.5 c 128,-1,11
 389 102 389 102 389 73 c 0,12,13
 389 42 389 42 367.5 20.5 c 128,-1,14
 346 -1 346 -1 316 -1 c 256,15,4
 286 -1 286 -1 265 20.5 c 128,-1,5
265 372 m 128,-1,17
 244 393 244 393 244 424 c 256,18,19
 244 455 244 455 265 476 c 128,-1,20
 286 497 286 497 316 497 c 256,21,22
 346 497 346 497 367.5 476 c 128,-1,23
 389 455 389 455 389 424 c 256,24,25
 389 393 389 393 367.5 372 c 128,-1,26
 346 351 346 351 316 351 c 256,27,16
 286 351 286 351 265 372 c 128,-1,17
EndSplineSet
EndChar
StartChar: oslash
Encoding: 248 248 179
Width: 632
GlyphClass: 2
Flags: W
AnchorPoint: "Anchor-3" 587 496 basechar 0
AnchorPoint: "Anchor-2" 550 10 basechar 0
AnchorPoint: "Anchor-1" 316 496 basechar 0
AnchorPoint: "Anchor-0" 316 0 basechar 0
LayerCount: 2
Fore
SplineSet
165 32 m 1,1,-1
 119 -19 l 1,2,-1
 71 23 l 1,3,-1
 116 73 l 1,4,5
 57 142 57 142 57 250 c 0,6,7
 57 335 57 335 93 393.5 c 128,-1,8
 129 452 129 452 188 480.5 c 128,-1,9
 247 509 247 509 316 509 c 0,10,11
 402 509 402 509 468 465 c 1,12,-1
 512 515 l 1,13,-1
 559 473 l 1,14,-1
 516 425 l 1,15,16
 575 358 575 358 575 250 c 0,17,18
 575 164 575 164 538.5 105 c 128,-1,19
 502 46 502 46 443 17 c 128,-1,20
 384 -12 384 -12 316 -12 c 0,21,0
 230 -12 230 -12 165 32 c 1,1,-1
411 128 m 128,-1,23
 448 170 448 170 448 250 c 0,24,25
 448 297 448 297 431 329 c 1,26,-1
 236 113 l 1,27,28
 269 86 269 86 316 86 c 0,29,22
 374 86 374 86 411 128 c 128,-1,23
316 412 m 0,31,32
 259 412 259 412 221.5 370.5 c 128,-1,33
 184 329 184 329 184 250 c 0,34,35
 184 203 184 203 200 168 c 1,36,-1
 396 384 l 1,37,30
 364 412 364 412 316 412 c 0,31,32
EndSplineSet
EndChar
StartChar: Aogonek
Encoding: 260 260 9
Width: 632
GlyphClass: 2
Flags: W
AnchorPoint: "Anchor-1" 316 668 basechar 0
LayerCount: 2
Fore
SplineSet
248 668 m 1,0,-1
 384 668 l 1,1,-1
 600 0 l 1,2,3
 566 -6 566 -6 537 -26.5 c 128,-1,4
 508 -47 508 -47 508 -71 c 0,5,6
 508 -89 508 -89 520.5 -98 c 128,-1,7
 533 -107 533 -107 552 -107 c 0,8,9
 573 -107 573 -107 600 -98 c 1,10,-1
 600 -164 l 1,11,12
 575 -173 575 -173 530 -173 c 0,13,14
 465 -173 465 -173 434.5 -148 c 128,-1,15
 404 -123 404 -123 404 -88 c 0,16,17
 404 -57 404 -57 424.5 -34 c 128,-1,18
 445 -11 445 -11 478 4 c 1,19,-1
 438 134 l 1,20,-1
 189 134 l 1,21,-1
 148 0 l 1,22,-1
 32 0 l 1,23,-1
 248 668 l 1,0,-1
408 238 m 1,24,-1
 315 536 l 1,25,-1
 311 536 l 1,26,-1
 218 238 l 1,27,-1
 408 238 l 1,24,-1
EndSplineSet
EndChar
StartChar: dcaron
Encoding: 271 271 130
Width: 632
GlyphClass: 1
Flags: W
LayerCount: 2
Fore
SplineSet
116 20 m 128,-1,1
 70 52 70 52 44.5 111.5 c 128,-1,2
 19 171 19 171 19 251 c 256,3,4
 19 331 19 331 44.5 389.5 c 128,-1,5
 70 448 70 448 116 478.5 c 128,-1,6
 162 509 162 509 223 509 c 0,7,8
 264 509 264 509 300.5 488.5 c 128,-1,9
 337 468 337 468 362 431 c 1,10,-1
 362 708 l 1,11,-1
 483 708 l 1,12,-1
 483 191 l 2,13,14
 483 90 483 90 499 0 c 1,15,-1
 383 0 l 1,16,-1
 366 65 l 1,17,18
 337 27 337 27 300.5 7.5 c 128,-1,19
 264 -12 264 -12 223 -12 c 0,20,0
 162 -12 162 -12 116 20 c 128,-1,1
336.5 127.5 m 128,-1,22
 367 169 367 169 367 249 c 0,23,24
 367 328 367 328 336.5 370 c 128,-1,25
 306 412 306 412 256 412 c 0,26,27
 205 412 205 412 174.5 369.5 c 128,-1,28
 144 327 144 327 144 251 c 0,29,30
 144 174 144 174 175 130 c 128,-1,31
 206 86 206 86 256 86 c 256,32,21
 306 86 306 86 336.5 127.5 c 128,-1,22
582 719 m 0,34,35
 600 719 600 719 610 708.5 c 128,-1,36
 620 698 620 698 620 679 c 0,37,38
 620 658 620 658 606 624 c 2,39,-1
 571 531 l 1,40,-1
 517 531 l 1,41,-1
 537 663 l 2,42,33
 545 719 545 719 582 719 c 0,34,35
EndSplineSet
EndChar
StartChar: dcroat
Encoding: 273 273 131
Width: 632
GlyphClass: 1
Flags: W
LayerCount: 2
Fore
SplineSet
153 20 m 128,-1,1
 102 52 102 52 74 111.5 c 128,-1,2
 46 171 46 171 46 251 c 256,3,4
 46 331 46 331 74.5 389.5 c 128,-1,5
 103 448 103 448 153.5 478.5 c 128,-1,6
 204 509 204 509 271 509 c 0,7,8
 320 509 320 509 364 486 c 128,-1,9
 408 463 408 463 433 421 c 1,10,-1
 433 550 l 1,11,-1
 285 550 l 1,12,-1
 285 616 l 1,13,-1
 433 616 l 1,14,-1
 433 708 l 1,15,-1
 557 708 l 1,16,-1
 557 616 l 1,17,-1
 616 616 l 1,18,-1
 616 550 l 1,19,-1
 557 550 l 1,20,-1
 557 191 l 2,21,22
 557 90 557 90 574 0 c 1,23,-1
 456 0 l 1,24,-1
 435 71 l 1,25,26
 405 30 405 30 362 9 c 128,-1,27
 319 -12 319 -12 271 -12 c 0,28,0
 204 -12 204 -12 153 20 c 128,-1,1
401.5 127.5 m 128,-1,30
 438 169 438 169 438 249 c 0,31,32
 438 328 438 328 401.5 370 c 128,-1,33
 365 412 365 412 307 412 c 0,34,35
 248 412 248 412 211 369.5 c 128,-1,36
 174 327 174 327 174 251 c 0,37,38
 174 174 174 174 211 130 c 128,-1,39
 248 86 248 86 307 86 c 0,40,29
 365 86 365 86 401.5 127.5 c 128,-1,30
EndSplineSet
EndChar
StartChar: Hbar
Encoding: 294 294 38
Width: 632
GlyphClass: 1
Flags: W
LayerCount: 2
Fore
SplineSet
56 505 m 1,0,-1
 7 505 l 1,1,-1
 7 583 l 1,2,-1
 56 583 l 1,3,-1
 56 668 l 1,4,-1
 185 668 l 1,5,-1
 185 583 l 1,6,-1
 447 583 l 1,7,-1
 447 668 l 1,8,-1
 576 668 l 1,9,-1
 576 583 l 1,10,-1
 625 583 l 1,11,-1
 625 505 l 1,12,-1
 576 505 l 1,13,-1
 576 0 l 1,14,-1
 447 0 l 1,15,-1
 447 287 l 1,16,-1
 185 287 l 1,17,-1
 185 0 l 1,18,-1
 56 0 l 1,19,-1
 56 505 l 1,0,-1
447 400 m 1,20,-1
 447 505 l 1,21,-1
 185 505 l 1,22,-1
 185 400 l 1,23,-1
 447 400 l 1,20,-1
EndSplineSet
EndChar
StartChar: hbar
Encoding: 295 295 148
Width: 632
GlyphClass: 1
Flags: W
LayerCount: 2
Fore
SplineSet
90 550 m 1,0,-1
 31 550 l 1,1,-1
 31 616 l 1,2,-1
 90 616 l 1,3,-1
 90 708 l 1,4,-1
 214 708 l 1,5,-1
 214 616 l 1,6,-1
 362 616 l 1,7,-1
 362 550 l 1,8,-1
 214 550 l 1,9,-1
 214 427 l 1,10,11
 234 459 234 459 276.5 484 c 128,-1,12
 319 509 319 509 374 509 c 0,13,14
 547 509 547 509 547 321 c 2,15,-1
 547 0 l 1,16,-1
 423 0 l 1,17,-1
 423 293 l 2,18,19
 423 412 423 412 329 412 c 0,20,21
 273 412 273 412 243.5 372.5 c 128,-1,22
 214 333 214 333 214 260 c 2,23,-1
 214 0 l 1,24,-1
 90 0 l 1,25,-1
 90 550 l 1,0,-1
EndSplineSet
EndChar
StartChar: dotlessi
Encoding: 305 305 150
Width: 632
GlyphClass: 2
Flags: W
AnchorPoint: "Anchor-2" 567 10 basechar 0
AnchorPoint: "Anchor-1" 326 496 basechar 0
AnchorPoint: "Anchor-0" 302 0 basechar 0
LayerCount: 2
Fore
SplineSet
105 95 m 1,0,-1
 273 95 l 1,1,-1
 273 401 l 1,2,-1
 130 401 l 1,3,-1
 130 496 l 1,4,-1
 398 496 l 1,5,-1
 398 95 l 1,6,-1
 567 95 l 1,7,-1
 567 0 l 1,8,-1
 105 0 l 1,9,-1
 105 95 l 1,0,-1
EndSplineSet
EndChar
StartChar: ij
Encoding: 307 307 157
Width: 632
GlyphClass: 1
Flags: W
LayerCount: 2
Fore
SplineSet
297 -61 m 1,0,-1
 347 -61 l 2,1,2
 381 -61 381 -61 397 -56 c 128,-1,3
 413 -51 413 -51 418.5 -38 c 128,-1,4
 424 -25 424 -25 424 3 c 2,5,-1
 424 401 l 1,6,-1
 357 401 l 1,7,-1
 357 496 l 1,8,-1
 548 496 l 1,9,-1
 548 -8 l 2,10,11
 548 -68 548 -68 531 -100.5 c 128,-1,12
 514 -133 514 -133 475.5 -147 c 128,-1,13
 437 -161 437 -161 367 -161 c 2,14,-1
 297 -161 l 1,15,-1
 297 -61 l 1,0,-1
119 401 m 1,16,-1
 53 401 l 1,17,-1
 53 496 l 1,18,-1
 244 496 l 1,19,-1
 244 0 l 1,20,-1
 119 0 l 1,21,-1
 119 401 l 1,16,-1
117 607 m 128,-1,23
 94 630 94 630 94 662 c 256,24,25
 94 694 94 694 117 717 c 128,-1,26
 140 740 140 740 172 740 c 256,27,28
 204 740 204 740 227 717 c 128,-1,29
 250 694 250 694 250 662 c 256,30,31
 250 630 250 630 227 607 c 128,-1,32
 204 584 204 584 172 584 c 256,33,22
 140 584 140 584 117 607 c 128,-1,23
421 607 m 128,-1,35
 398 630 398 630 398 662 c 256,36,37
 398 694 398 694 421 717 c 128,-1,38
 444 740 444 740 476 740 c 256,39,40
 508 740 508 740 531 717 c 128,-1,41
 554 694 554 694 554 662 c 256,42,43
 554 630 554 630 531 607 c 128,-1,44
 508 584 508 584 476 584 c 256,45,34
 444 584 444 584 421 607 c 128,-1,35
EndSplineSet
EndChar
StartChar: Lslash
Encoding: 321 321 55
Width: 632
GlyphClass: 1
Flags: W
LayerCount: 2
Fore
SplineSet
118 237 m 1,0,-1
 30 186 l 1,1,-1
 30 287 l 1,2,-1
 118 339 l 1,3,-1
 118 668 l 1,4,-1
 246 668 l 1,5,-1
 246 415 l 1,6,-1
 415 516 l 1,7,-1
 415 414 l 1,8,-1
 246 314 l 1,9,-1
 246 113 l 1,10,-1
 583 113 l 1,11,-1
 583 0 l 1,12,-1
 118 0 l 1,13,-1
 118 237 l 1,0,-1
EndSplineSet
EndChar
StartChar: uni0163
Encoding: 355 355 196
Width: 632
GlyphClass: 2
Flags: W
AnchorPoint: "Anchor-3" 360 550 basechar 0
AnchorPoint: "Anchor-1" 287 496 basechar 0
LayerCount: 2
Fore
SplineSet
232 -168 m 1,1,-1
 247 -125 l 1,2,3
 272 -139 272 -139 310 -139 c 0,4,5
 330 -139 330 -139 342.5 -131 c 128,-1,6
 355 -123 355 -123 355 -110 c 256,7,8
 355 -97 355 -97 345 -89.5 c 128,-1,9
 335 -82 335 -82 316 -82 c 0,10,11
 310 -82 310 -82 296 -85 c 128,-1,12
 282 -88 282 -88 278 -88 c 0,13,14
 270 -88 270 -88 265.5 -83 c 128,-1,15
 261 -78 261 -78 261 -71 c 0,16,17
 261 -63 261 -63 265 -58 c 2,18,-1
 302 2 l 1,19,20
 248 8 248 8 227 36.5 c 128,-1,21
 206 65 206 65 206 133 c 2,22,-1
 206 401 l 1,23,-1
 103 401 l 1,24,-1
 103 496 l 1,25,-1
 206 496 l 1,26,-1
 206 620 l 1,27,-1
 330 620 l 1,28,-1
 330 496 l 1,29,-1
 536 496 l 1,30,-1
 536 401 l 1,31,-1
 330 401 l 1,32,-1
 330 160 l 2,33,34
 330 123 330 123 342.5 111.5 c 128,-1,35
 355 100 355 100 392 100 c 2,36,-1
 486 100 l 1,37,-1
 486 0 l 1,38,-1
 352 0 l 1,39,-1
 321 -49 l 1,40,41
 334 -45 334 -45 354 -45 c 0,42,43
 386 -45 386 -45 410 -60.5 c 128,-1,44
 434 -76 434 -76 434 -105 c 0,45,46
 434 -141 434 -141 400 -162.5 c 128,-1,47
 366 -184 366 -184 317 -184 c 0,48,0
 273 -184 273 -184 232 -168 c 1,1,-1
EndSplineSet
Substitution2: "'locl' Localized Forms in Latin lookup 4 subtable" uni021B
AlternateSubs2: "'aalt' Access All Alternates in Latin lookup 0 subtable" uni021B
EndChar
StartChar: Uring
Encoding: 366 366 95
Width: 632
GlyphClass: 2
Flags: W
AnchorPoint: "Anchor-3" 633 668 basechar 0
AnchorPoint: "Anchor-1" 316 907 basechar 0
LayerCount: 2
Fore
SplineSet
122.5 53.5 m 128,-1,1
 63 119 63 119 63 258 c 2,2,-1
 63 668 l 1,3,-1
 192 668 l 1,4,-1
 192 242 l 2,5,6
 192 168 192 168 220.5 130.5 c 128,-1,7
 249 93 249 93 317 93 c 256,8,9
 385 93 385 93 412.5 130 c 128,-1,10
 440 167 440 167 440 242 c 2,11,-1
 440 668 l 1,12,-1
 569 668 l 1,13,-1
 569 258 l 2,14,15
 569 120 569 120 509 54 c 128,-1,16
 449 -12 449 -12 316 -12 c 0,17,0
 182 -12 182 -12 122.5 53.5 c 128,-1,1
255.5 678.5 m 128,-1,19
 227 695 227 695 210.5 723.5 c 128,-1,20
 194 752 194 752 194 785 c 0,21,22
 194 835 194 835 230 871 c 128,-1,23
 266 907 266 907 317 907 c 256,24,25
 368 907 368 907 403 871.5 c 128,-1,26
 438 836 438 836 438 785 c 256,27,28
 438 734 438 734 403 698 c 128,-1,29
 368 662 368 662 317 662 c 0,30,18
 284 662 284 662 255.5 678.5 c 128,-1,19
351 750.5 m 128,-1,32
 365 765 365 765 365 785 c 256,33,34
 365 805 365 805 351 819.5 c 128,-1,35
 337 834 337 834 316 834 c 0,36,37
 296 834 296 834 281 819.5 c 128,-1,38
 266 805 266 805 266 785 c 256,39,40
 266 765 266 765 281 750.5 c 128,-1,41
 296 736 296 736 316 736 c 0,42,31
 337 736 337 736 351 750.5 c 128,-1,32
EndSplineSet
EndChar
StartChar: uogonek
Encoding: 371 371 205
Width: 632
GlyphClass: 2
Flags: W
AnchorPoint: "Anchor-3" 572 496 basechar 0
AnchorPoint: "Anchor-1" 315 496 basechar 0
LayerCount: 2
Fore
SplineSet
129.5 39 m 128,-1,1
 89 90 89 90 89 189 c 2,2,-1
 89 496 l 1,3,-1
 214 496 l 1,4,-1
 214 222 l 2,5,6
 214 155 214 155 232 120.5 c 128,-1,7
 250 86 250 86 305 86 c 256,8,9
 360 86 360 86 387 121.5 c 128,-1,10
 414 157 414 157 414 231 c 2,11,-1
 414 496 l 1,12,-1
 539 496 l 1,13,-1
 539 0 l 1,14,15
 494 -10 494 -10 470 -30 c 128,-1,16
 446 -50 446 -50 446 -72 c 0,17,18
 446 -89 446 -89 460.5 -98 c 128,-1,19
 475 -107 475 -107 494 -107 c 0,20,21
 512 -107 512 -107 539 -98 c 1,22,-1
 539 -164 l 1,23,24
 515 -173 515 -173 469 -173 c 0,25,26
 404 -173 404 -173 373.5 -148 c 128,-1,27
 343 -123 343 -123 343 -88 c 256,28,29
 343 -53 343 -53 366 -29 c 128,-1,30
 389 -5 389 -5 430 14 c 1,31,-1
 415 74 l 1,32,33
 392 34 392 34 356.5 11 c 128,-1,34
 321 -12 321 -12 264 -12 c 0,35,0
 170 -12 170 -12 129.5 39 c 128,-1,1
EndSplineSet
EndChar
StartChar: uni0237
Encoding: 567 567 159
Width: 632
GlyphClass: 2
Flags: W
AnchorPoint: "Anchor-1" 356 496 basechar 0
AnchorPoint: "Anchor-0" 344 -251 basechar 0
LayerCount: 2
Fore
SplineSet
80 -62 m 1,0,-1
 227 -62 l 2,1,2
 261 -62 261 -62 277 -57 c 128,-1,3
 293 -52 293 -52 298.5 -39 c 128,-1,4
 304 -26 304 -26 304 2 c 2,5,-1
 304 401 l 1,6,-1
 160 401 l 1,7,-1
 160 496 l 1,8,-1
 429 496 l 1,9,-1
 429 -9 l 2,10,11
 429 -69 429 -69 412 -101.5 c 128,-1,12
 395 -134 395 -134 356 -148 c 128,-1,13
 317 -162 317 -162 247 -162 c 2,14,-1
 80 -162 l 1,15,-1
 80 -62 l 1,0,-1
EndSplineSet
EndChar
StartChar: uni0307
Encoding: 775 775 337
Width: 0
GlyphClass: 4
Flags: W
AnchorPoint: "Anchor-5" 316 712 basemark 0
AnchorPoint: "Anchor-5" 316 496 mark 0
AnchorPoint: "Anchor-1" 316 496 mark 0
LayerCount: 2
Fore
SplineSet
269 598.5 m 128,-1,1
 249 618 249 618 249 646 c 0,2,3
 249 673 249 673 269 692.5 c 128,-1,4
 289 712 289 712 316 712 c 256,5,6
 343 712 343 712 363 692.5 c 128,-1,7
 383 673 383 673 383 646 c 0,8,9
 383 618 383 618 363 598.5 c 128,-1,10
 343 579 343 579 316 579 c 256,11,0
 289 579 289 579 269 598.5 c 128,-1,1
EndSplineSet
Substitution2: "Single Substitution lookup 12 subtable" uni0307.case
Substitution2: "'case' Case-Sensitive Forms in Latin lookup 9 subtable" uni0307.case
AlternateSubs2: "'aalt' Access All Alternates in Latin lookup 0 subtable" uni0307.case
EndChar
StartChar: uni030C
Encoding: 780 780 349
Width: 0
GlyphClass: 4
Flags: W
AnchorPoint: "Anchor-5" 316 707 basemark 0
AnchorPoint: "Anchor-5" 316 496 mark 0
AnchorPoint: "Anchor-1" 316 496 mark 0
LayerCount: 2
Fore
SplineSet
268 588 m 2,1,-1
 142 707 l 1,2,-1
 248 707 l 1,3,-1
 316 646 l 1,4,-1
 385 707 l 1,5,-1
 490 707 l 1,6,-1
 364 588 l 2,7,8
 342 569 342 569 316 569 c 256,9,0
 290 569 290 569 268 588 c 2,1,-1
EndSplineSet
Substitution2: "Single Substitution lookup 12 subtable" uni030C.case
Substitution2: "'case' Case-Sensitive Forms in Latin lookup 9 subtable" uni030C.case
AlternateSubs2: "'aalt' Access All Alternates in Latin lookup 0 subtable" uni030C.case
EndChar
StartChar: pi
Encoding: 960 960 228
Width: 632
GlyphClass: 1
Flags: W
LayerCount: 2
Fore
SplineSet
119 402 m 1,0,-1
 35 402 l 1,1,-1
 35 496 l 1,2,-1
 575 496 l 1,3,-1
 575 402 l 1,4,-1
 489 402 l 1,5,-1
 489 135 l 2,6,7
 489 106 489 106 499 97 c 128,-1,8
 509 88 509 88 542 88 c 2,9,-1
 575 88 l 1,10,-1
 575 0 l 1,11,-1
 509 0 l 2,12,13
 457 0 457 0 430.5 9.5 c 128,-1,14
 404 19 404 19 393 44.5 c 128,-1,15
 382 70 382 70 382 121 c 2,16,-1
 382 402 l 1,17,-1
 226 402 l 1,18,-1
 226 0 l 1,19,-1
 119 0 l 1,20,-1
 119 402 l 1,0,-1
EndSplineSet
EndChar
StartChar: uni1E9E
Encoding: 7838 7838 82
Width: 632
GlyphClass: 1
Flags: W
LayerCount: 2
Fore
SplineSet
246 108 m 1,1,-1
 345 144 l 1,2,3
 359 90 359 90 416 90 c 0,4,5
 449 90 449 90 469.5 115.5 c 128,-1,6
 490 141 490 141 490 187 c 256,7,8
 490 233 490 233 466.5 258 c 128,-1,9
 443 283 443 283 408 283 c 0,10,11
 383 283 383 283 365 274 c 1,12,-1
 317 355 l 1,13,-1
 476 567 l 1,14,15
 405 580 405 580 358 580 c 0,16,17
 269 580 269 580 226 542.5 c 128,-1,18
 183 505 183 505 183 423 c 2,19,-1
 183 0 l 1,20,-1
 55 0 l 1,21,-1
 55 448 l 2,22,23
 55 566 55 566 122.5 623 c 128,-1,24
 190 680 190 680 334 680 c 0,25,26
 453 680 453 680 583 652 c 1,27,-1
 583 545 l 1,28,-1
 447 363 l 1,29,30
 517 358 517 358 563 308.5 c 128,-1,31
 609 259 609 259 609 184 c 0,32,33
 609 125 609 125 582.5 80.5 c 128,-1,34
 556 36 556 36 512.5 12 c 128,-1,35
 469 -12 469 -12 421 -12 c 0,36,0
 290 -12 290 -12 246 108 c 1,1,-1
EndSplineSet
EndChar
StartChar: quotedblleft
Encoding: 8220 8220 276
Width: 632
GlyphClass: 1
Flags: W
LayerCount: 2
Fore
SplineSet
371 381 m 128,-1,1
 345 407 345 407 345 444 c 0,2,3
 345 460 345 460 352 480 c 2,4,-1
 427 668 l 1,5,-1
 506 668 l 1,6,-1
 453 529 l 1,7,8
 482 524 482 524 502.5 499.5 c 128,-1,9
 523 475 523 475 523 444 c 0,10,11
 523 407 523 407 497 381 c 128,-1,12
 471 355 471 355 434 355 c 256,13,0
 397 355 397 355 371 381 c 128,-1,1
134.5 380 m 128,-1,15
 109 406 109 406 109 443 c 0,16,17
 109 463 109 463 116 479 c 2,18,-1
 190 667 l 1,19,-1
 270 667 l 1,20,-1
 216 529 l 1,21,22
 245 524 245 524 265.5 499 c 128,-1,23
 286 474 286 474 286 443 c 0,24,25
 286 406 286 406 260 380 c 128,-1,26
 234 354 234 354 197 354 c 256,27,14
 160 354 160 354 134.5 380 c 128,-1,15
EndSplineSet
EndChar
StartChar: quotedblright
Encoding: 8221 8221 277
Width: 632
GlyphClass: 1
Flags: W
LayerCount: 2
Fore
SplineSet
366.5 536 m 128,-1,1
 346 561 346 561 346 592 c 0,2,3
 346 629 346 629 372 655 c 128,-1,4
 398 681 398 681 435 681 c 256,5,6
 472 681 472 681 497.5 655 c 128,-1,7
 523 629 523 629 523 592 c 0,8,9
 523 571 523 571 516 556 c 2,10,-1
 442 367 l 1,11,-1
 362 367 l 1,12,-1
 416 506 l 1,13,0
 387 511 387 511 366.5 536 c 128,-1,1
129.5 535 m 128,-1,15
 109 560 109 560 109 591 c 0,16,17
 109 628 109 628 135 654 c 128,-1,18
 161 680 161 680 198 680 c 256,19,20
 235 680 235 680 261 654 c 128,-1,21
 287 628 287 628 287 591 c 0,22,23
 287 575 287 575 280 555 c 2,24,-1
 205 367 l 1,25,-1
 126 367 l 1,26,-1
 179 505 l 1,27,14
 150 510 150 510 129.5 535 c 128,-1,15
EndSplineSet
EndChar
StartChar: quotedblbase
Encoding: 8222 8222 275
Width: 632
GlyphClass: 1
Flags: W
LayerCount: 2
Fore
SplineSet
129.5 14 m 128,-1,1
 109 39 109 39 109 70 c 0,2,3
 109 107 109 107 135 133 c 128,-1,4
 161 159 161 159 198 159 c 256,5,6
 235 159 235 159 261 133 c 128,-1,7
 287 107 287 107 287 70 c 0,8,9
 287 54 287 54 280 34 c 2,10,-1
 205 -155 l 1,11,-1
 126 -155 l 1,12,-1
 179 -16 l 1,13,0
 150 -11 150 -11 129.5 14 c 128,-1,1
366.5 15 m 128,-1,15
 346 40 346 40 346 71 c 0,16,17
 346 108 346 108 372 133.5 c 128,-1,18
 398 159 398 159 435 159 c 256,19,20
 472 159 472 159 497.5 133.5 c 128,-1,21
 523 108 523 108 523 71 c 0,22,23
 523 50 523 50 516 35 c 2,24,-1
 442 -154 l 1,25,-1
 362 -154 l 1,26,-1
 416 -15 l 1,27,14
 387 -10 387 -10 366.5 15 c 128,-1,15
EndSplineSet
EndChar
StartChar: ellipsis
Encoding: 8230 8230 253
Width: 632
GlyphClass: 1
Flags: W
LayerCount: 2
Fore
SplineSet
55.5 11 m 128,-1,1
 32 34 32 34 32 67 c 256,2,3
 32 100 32 100 55.5 123 c 128,-1,4
 79 146 79 146 111 146 c 0,5,6
 144 146 144 146 167.5 123 c 128,-1,7
 191 100 191 100 191 67 c 256,8,9
 191 34 191 34 167.5 11 c 128,-1,10
 144 -12 144 -12 111 -12 c 0,11,0
 79 -12 79 -12 55.5 11 c 128,-1,1
260 11 m 128,-1,13
 237 34 237 34 237 67 c 256,14,15
 237 100 237 100 260 123 c 128,-1,16
 283 146 283 146 316 146 c 256,17,18
 349 146 349 146 372 123 c 128,-1,19
 395 100 395 100 395 67 c 256,20,21
 395 34 395 34 372 11 c 128,-1,22
 349 -12 349 -12 316 -12 c 256,23,12
 283 -12 283 -12 260 11 c 128,-1,13
464.5 11 m 128,-1,25
 441 34 441 34 441 67 c 256,26,27
 441 100 441 100 464.5 123 c 128,-1,28
 488 146 488 146 521 146 c 0,29,30
 553 146 553 146 576.5 123 c 128,-1,31
 600 100 600 100 600 67 c 256,32,33
 600 34 600 34 576.5 11 c 128,-1,34
 553 -12 553 -12 521 -12 c 0,35,24
 488 -12 488 -12 464.5 11 c 128,-1,25
EndSplineSet
EndChar
StartChar: perthousand
Encoding: 8240 8240 333
Width: 632
GlyphClass: 1
Flags: W
LayerCount: 2
Fore
SplineSet
109 431.5 m 128,-1,1
 78 450 78 450 60 481 c 128,-1,2
 42 512 42 512 42 548 c 256,3,4
 42 584 42 584 60 615 c 128,-1,5
 78 646 78 646 109 664 c 128,-1,6
 140 682 140 682 176 682 c 256,7,8
 212 682 212 682 243 664 c 128,-1,9
 274 646 274 646 292 615 c 128,-1,10
 310 584 310 584 310 548 c 256,11,12
 310 512 310 512 292 481 c 128,-1,13
 274 450 274 450 243 431.5 c 128,-1,14
 212 413 212 413 176 413 c 256,15,0
 140 413 140 413 109 431.5 c 128,-1,1
221.5 502 m 128,-1,17
 240 521 240 521 240 548 c 256,18,19
 240 575 240 575 221.5 594 c 128,-1,20
 203 613 203 613 176 613 c 0,21,22
 150 613 150 613 131.5 594 c 128,-1,23
 113 575 113 575 113 548 c 256,24,25
 113 521 113 521 131.5 502 c 128,-1,26
 150 483 150 483 176 483 c 0,27,16
 203 483 203 483 221.5 502 c 128,-1,17
109 4.5 m 128,-1,29
 78 23 78 23 60 54 c 128,-1,30
 42 85 42 85 42 121 c 256,31,32
 42 157 42 157 60 188 c 128,-1,33
 78 219 78 219 109 237 c 128,-1,34
 140 255 140 255 176 255 c 256,35,36
 212 255 212 255 243 237 c 128,-1,37
 274 219 274 219 292 188 c 128,-1,38
 310 157 310 157 310 121 c 256,39,40
 310 85 310 85 292 54 c 128,-1,41
 274 23 274 23 243 4.5 c 128,-1,42
 212 -14 212 -14 176 -14 c 256,43,28
 140 -14 140 -14 109 4.5 c 128,-1,29
221.5 75 m 128,-1,45
 240 94 240 94 240 121 c 256,46,47
 240 148 240 148 221.5 167 c 128,-1,48
 203 186 203 186 176 186 c 0,49,50
 150 186 150 186 131.5 167 c 128,-1,51
 113 148 113 148 113 121 c 256,52,53
 113 94 113 94 131.5 75 c 128,-1,54
 150 56 150 56 176 56 c 0,55,44
 203 56 203 56 221.5 75 c 128,-1,45
398 4.5 m 128,-1,57
 367 23 367 23 349 54 c 128,-1,58
 331 85 331 85 331 121 c 256,59,60
 331 157 331 157 349 188 c 128,-1,61
 367 219 367 219 398 237 c 128,-1,62
 429 255 429 255 465 255 c 256,63,64
 501 255 501 255 532 237 c 128,-1,65
 563 219 563 219 581 188 c 128,-1,66
 599 157 599 157 599 121 c 256,67,68
 599 85 599 85 581 54 c 128,-1,69
 563 23 563 23 532 4.5 c 128,-1,70
 501 -14 501 -14 465 -14 c 256,71,56
 429 -14 429 -14 398 4.5 c 128,-1,57
510.5 75 m 128,-1,73
 529 94 529 94 529 121 c 256,74,75
 529 148 529 148 510.5 167 c 128,-1,76
 492 186 492 186 465 186 c 0,77,78
 439 186 439 186 420.5 167 c 128,-1,79
 402 148 402 148 402 121 c 256,80,81
 402 94 402 94 420.5 75 c 128,-1,82
 439 56 439 56 465 56 c 0,83,72
 492 56 492 56 510.5 75 c 128,-1,73
48 332 m 1,84,-1
 595 527 l 1,85,-1
 595 445 l 1,86,-1
 48 249 l 1,87,-1
 48 332 l 1,84,-1
EndSplineSet
EndChar
StartChar: Euro
Encoding: 8364 8364 305
Width: 632
GlyphClass: 1
Flags: W
LayerCount: 2
Fore
SplineSet
190 57.5 m 128,-1,1
 122 127 122 127 102 235 c 1,2,-1
 15 235 l 1,3,-1
 47 299 l 1,4,-1
 94 299 l 1,5,6
 93 310 93 310 93 332 c 0,7,8
 93 358 93 358 95 371 c 1,9,-1
 15 371 l 1,10,-1
 46 435 l 1,11,-1
 104 435 l 1,12,13
 128 556 128 556 201 618.5 c 128,-1,14
 274 681 274 681 371 681 c 0,15,16
 447 681 447 681 506.5 640 c 128,-1,17
 566 599 566 599 599 526 c 1,18,-1
 493 488 l 1,19,20
 475 529 475 529 442 552 c 128,-1,21
 409 575 409 575 366 575 c 0,22,23
 315 575 315 575 278 540 c 128,-1,24
 241 505 241 505 227 435 c 1,25,-1
 436 435 l 1,26,-1
 404 371 l 1,27,-1
 218 371 l 1,28,29
 216 347 216 347 216 335 c 0,30,31
 216 325 216 325 218 299 c 1,32,-1
 370 299 l 1,33,-1
 339 235 l 1,34,-1
 228 235 l 1,35,36
 243 170 243 170 280 132 c 128,-1,37
 317 94 317 94 368 94 c 0,38,39
 412 94 412 94 446 115.5 c 128,-1,40
 480 137 480 137 497 180 c 1,41,-1
 602 141 l 1,42,43
 569 68 569 68 507.5 28 c 128,-1,44
 446 -12 446 -12 367 -12 c 0,45,0
 258 -12 258 -12 190 57.5 c 128,-1,1
EndSplineSet
EndChar
StartChar: uni20B9
Encoding: 8377 8377 306
Width: 632
GlyphClass: 1
Flags: W
LayerCount: 2
Fore
SplineSet
79 290 m 1,0,-1
 79 349 l 1,1,-1
 225 349 l 2,2,3
 336 349 336 349 350 425 c 1,4,-1
 79 425 l 1,5,-1
 79 489 l 1,6,-1
 350 489 l 1,7,8
 343 527 343 527 310.5 546.5 c 128,-1,9
 278 566 278 566 225 566 c 2,10,-1
 79 566 l 1,11,-1
 79 668 l 1,12,-1
 568 668 l 1,13,-1
 568 604 l 1,14,-1
 415 604 l 1,15,16
 470 563 470 563 479 489 c 1,17,-1
 568 489 l 1,18,-1
 568 425 l 1,19,-1
 479 425 l 1,20,21
 470 348 470 348 416 305 c 128,-1,22
 362 262 362 262 274 253 c 1,23,-1
 270 253 l 1,24,-1
 518 0 l 1,25,-1
 358 0 l 1,26,-1
 79 290 l 1,0,-1
EndSplineSet
EndChar
StartChar: uni2113
Encoding: 8467 8467 299
Width: 632
GlyphClass: 1
Flags: W
LayerCount: 2
Fore
SplineSet
231 26.5 m 128,-1,1
 188 65 188 65 188 146 c 2,2,-1
 188 170 l 1,3,-1
 122 123 l 1,4,-1
 122 215 l 1,5,-1
 188 264 l 1,6,-1
 188 473 l 2,7,8
 188 576 188 576 231.5 628 c 128,-1,9
 275 680 275 680 355 680 c 0,10,11
 426 680 426 680 465.5 641 c 128,-1,12
 505 602 505 602 505 535 c 0,13,14
 505 457 505 457 457.5 395 c 128,-1,15
 410 333 410 333 310 257 c 1,16,-1
 310 175 l 2,17,18
 310 129 310 129 326.5 108.5 c 128,-1,19
 343 88 343 88 374 88 c 0,20,21
 415 88 415 88 457 123 c 1,22,-1
 505 48 l 1,23,24
 478 23 478 23 438.5 5.5 c 128,-1,25
 399 -12 399 -12 351 -12 c 0,26,0
 274 -12 274 -12 231 26.5 c 128,-1,1
379 433 m 128,-1,28
 403 478 403 478 403 527 c 0,29,30
 403 559 403 559 391 575 c 128,-1,31
 379 591 379 591 358 591 c 0,32,33
 310 591 310 591 310 509 c 2,34,-1
 310 352 l 1,35,27
 355 388 355 388 379 433 c 128,-1,28
EndSplineSet
EndChar
StartChar: summation
Encoding: 8721 8721 329
Width: 632
GlyphClass: 1
Flags: W
LayerCount: 2
Fore
SplineSet
61 -54 m 1,0,-1
 301 254 l 1,1,-1
 61 560 l 1,2,-1
 61 668 l 1,3,-1
 571 668 l 1,4,-1
 571 560 l 1,5,-1
 201 560 l 1,6,-1
 442 254 l 1,7,-1
 201 -54 l 1,8,-1
 571 -54 l 1,9,-1
 571 -162 l 1,10,-1
 61 -162 l 1,11,-1
 61 -54 l 1,0,-1
EndSplineSet
EndChar
StartChar: infinity
Encoding: 8734 8734 326
Width: 632
GlyphClass: 1
Flags: W
LayerCount: 2
Fore
SplineSet
55 144 m 128,-1,1
 13 187 13 187 13 256 c 256,2,3
 13 325 13 325 55 368 c 128,-1,4
 97 411 97 411 166 411 c 0,5,6
 211 411 211 411 245.5 389 c 128,-1,7
 280 367 280 367 316 326 c 1,8,9
 352 367 352 367 386.5 389 c 128,-1,10
 421 411 421 411 466 411 c 0,11,12
 535 411 535 411 577 368 c 128,-1,13
 619 325 619 325 619 256 c 256,14,15
 619 187 619 187 577 144 c 128,-1,16
 535 101 535 101 466 101 c 0,17,18
 421 101 421 101 386.5 123 c 128,-1,19
 352 145 352 145 316 186 c 1,20,21
 280 145 280 145 245.5 123 c 128,-1,22
 211 101 211 101 166 101 c 0,23,0
 97 101 97 101 55 144 c 128,-1,1
215 205.5 m 128,-1,25
 235 220 235 220 264 256 c 1,26,27
 235 292 235 292 215 306.5 c 128,-1,28
 195 321 195 321 169 321 c 0,29,30
 141 321 141 321 124.5 302.5 c 128,-1,31
 108 284 108 284 108 256 c 256,32,33
 108 228 108 228 124.5 209.5 c 128,-1,34
 141 191 141 191 169 191 c 0,35,24
 195 191 195 191 215 205.5 c 128,-1,25
507.5 209.5 m 128,-1,37
 524 228 524 228 524 256 c 256,38,39
 524 284 524 284 507.5 302.5 c 128,-1,40
 491 321 491 321 463 321 c 0,41,42
 437 321 437 321 417 306.5 c 128,-1,43
 397 292 397 292 368 256 c 1,44,45
 397 220 397 220 417 205.5 c 128,-1,46
 437 191 437 191 463 191 c 0,47,36
 491 191 491 191 507.5 209.5 c 128,-1,37
EndSplineSet
EndChar
StartChar: notequal
Encoding: 8800 8800 316
Width: 632
GlyphClass: 1
Flags: W
LayerCount: 2
Fore
SplineSet
154 107 m 1,0,-1
 62 107 l 1,1,-1
 62 213 l 1,2,-1
 229 213 l 1,3,-1
 284 291 l 1,4,-1
 62 291 l 1,5,-1
 62 397 l 1,6,-1
 357 397 l 1,7,-1
 427 496 l 1,8,-1
 552 496 l 1,9,-1
 483 397 l 1,10,-1
 570 397 l 1,11,-1
 570 291 l 1,12,-1
 410 291 l 1,13,-1
 355 213 l 1,14,-1
 570 213 l 1,15,-1
 570 107 l 1,16,-1
 280 107 l 1,17,-1
 205 0 l 1,18,-1
 79 0 l 1,19,-1
 154 107 l 1,0,-1
EndSplineSet
EndChar
StartChar: greaterequal
Encoding: 8805 8805 319
Width: 632
GlyphClass: 1
Flags: W
LayerCount: 2
Fore
SplineSet
69 236 m 1,0,-1
 415 314 l 1,1,-1
 69 392 l 1,2,-1
 69 501 l 1,3,-1
 563 366 l 1,4,-1
 563 262 l 1,5,-1
 69 127 l 1,6,-1
 69 236 l 1,0,-1
69 106 m 1,7,-1
 563 106 l 1,8,-1
 563 0 l 1,9,-1
 69 0 l 1,10,-1
 69 106 l 1,7,-1
EndSplineSet
EndChar
StartChar: lozenge
Encoding: 9674 9674 334
Width: 632
GlyphClass: 1
Flags: W
LayerCount: 2
Fore
SplineSet
69 314 m 1,0,-1
 316 710 l 1,1,-1
 563 314 l 1,2,-1
 316 -83 l 1,3,-1
 69 314 l 1,0,-1
447 314 m 1,4,-1
 316 525 l 1,5,-1
 184 314 l 1,6,-1
 316 103 l 1,7,-1
 447 314 l 1,4,-1
EndSplineSet
EndChar
StartChar: acutecomb.case
Encoding: 65544 -1 343
Width: 0
GlyphClass: 4
Flags: W
AnchorPoint: "Anchor-5" 261 874 basemark 0
AnchorPoint: "Anchor-5" 261 668 mark 0
AnchorPoint: "Anchor-1" 261 668 mark 0
LayerCount: 2
Fore
SplineSet
343 861.5 m 128,-1,1
 356 869 356 869 369 869 c 0,2,3
 390 869 390 869 403 856.5 c 128,-1,4
 416 844 416 844 416 825 c 0,5,6
 416 810 416 810 408 798.5 c 128,-1,7
 400 787 400 787 377 772 c 2,8,-1
 317 733 l 1,9,-1
 216 733 l 1,10,-1
 313 836 l 2,11,0
 330 854 330 854 343 861.5 c 128,-1,1
EndSplineSet
EndChar
StartChar: uni0307.case
Encoding: 65541 -1 338
Width: 0
GlyphClass: 4
Flags: W
AnchorPoint: "Anchor-5" 316 858 basemark 0
AnchorPoint: "Anchor-5" 316 668 mark 0
AnchorPoint: "Anchor-1" 316 668 mark 0
LayerCount: 2
Fore
SplineSet
269 743.5 m 128,-1,1
 249 763 249 763 249 791 c 0,2,3
 249 818 249 818 269 838 c 128,-1,4
 289 858 289 858 316 858 c 256,5,6
 343 858 343 858 363 838 c 128,-1,7
 383 818 383 818 383 791 c 0,8,9
 383 763 383 763 363 743.5 c 128,-1,10
 343 724 343 724 316 724 c 256,11,0
 289 724 289 724 269 743.5 c 128,-1,1
EndSplineSet
EndChar
StartChar: uni0328.alt
Encoding: 65553 -1 362
Width: 0
GlyphClass: 4
Flags: W
AnchorPoint: "Anchor-2" 414 10 mark 0
LayerCount: 2
Fore
SplineSet
249 -148 m 128,-1,1
 219 -123 219 -123 219 -86 c 0,2,3
 219 -41 219 -41 254.5 -9.5 c 128,-1,4
 290 22 290 22 345 36 c 1,5,-1
 399 35 l 1,6,7
 364 12 364 12 342.5 -11.5 c 128,-1,8
 321 -35 321 -35 321 -64 c 0,9,10
 321 -85 321 -85 335 -96 c 128,-1,11
 349 -107 349 -107 370 -107 c 256,12,13
 391 -107 391 -107 414 -98 c 1,14,-1
 414 -163 l 1,15,16
 391 -173 391 -173 344 -173 c 0,17,0
 279 -173 279 -173 249 -148 c 128,-1,1
EndSplineSet
EndChar
StartChar: uni0328.case
Encoding: 65554 -1 363
Width: 0
GlyphClass: 4
Flags: W
AnchorPoint: "Anchor-2" 414 10 mark 0
LayerCount: 2
Fore
SplineSet
249 -148 m 128,-1,1
 219 -123 219 -123 219 -88 c 0,2,3
 219 -26 219 -26 301 9 c 1,4,-1
 414 0 l 1,5,6
 380 -6 380 -6 351 -26.5 c 128,-1,7
 322 -47 322 -47 322 -71 c 0,8,9
 322 -89 322 -89 335 -98 c 128,-1,10
 348 -107 348 -107 367 -107 c 0,11,12
 387 -107 387 -107 414 -98 c 1,13,-1
 414 -164 l 1,14,15
 390 -173 390 -173 344 -173 c 0,16,0
 279 -173 279 -173 249 -148 c 128,-1,1
EndSplineSet
EndChar
